<?xml version="1.0" encoding="utf-8"?>
<!-- Generator: Adobe Illustrator 15.0.0, SVG Export Plug-In . SVG Version: 6.00 Build 0)  -->
<!DOCTYPE svg PUBLIC "-//W3C//DTD SVG 1.1//EN" "http://www.w3.org/Graphics/SVG/1.1/DTD/svg11.dtd">
<svg version="1.1" id="Layer_1" xmlns="http://www.w3.org/2000/svg" xmlns:xlink="http://www.w3.org/1999/xlink" x="0px" y="0px"
	 width="90px" height="80px" viewBox="0 0 90 80" enable-background="new 0 0 90 80" xml:space="preserve">
<g>
	<g>
		<path fill="#FF3A65" d="M16.356,53.002c-0.194,0-0.392-0.05-0.571-0.154c-0.539-0.312-0.718-1.009-0.403-1.547l6.173-10.529
			c0.316-0.539,1.008-0.715,1.546-0.399c0.539,0.312,0.718,1.008,0.403,1.547L17.33,52.445
			C17.121,52.803,16.743,53.002,16.356,53.002z"/>
	</g>
	<g>
		<path fill="#FF3A65" d="M23.012,50.842c-0.194,0-0.391-0.051-0.57-0.156l-8.523-4.996c-0.539-0.312-0.718-1.008-0.403-1.547
			c0.317-0.539,1.01-0.718,1.547-0.399l8.522,4.993c0.539,0.316,0.719,1.012,0.403,1.551C23.777,50.643,23.4,50.842,23.012,50.842z"
			/>
	</g>
	<g>
		<path fill="#445462" d="M56.372,50.198c-5.677,0-14.499-6.089-15.538-22.864c-0.039-0.623,0.435-1.159,1.058-1.197
			c0.641-0.04,1.159,0.436,1.198,1.058c0.936,15.112,8.645,20.745,13.282,20.745c7.339,0,12.666-7.777,14.248-20.811
			c0.075-0.62,0.634-1.058,1.259-0.986c0.62,0.076,1.061,0.639,0.984,1.259C70.295,48.555,59.592,50.198,56.372,50.198z"/>
	</g>
	<g>
		<path fill="#445462" d="M53.111,32.539H49.34c-0.619,0-1.131-0.506-1.131-1.13c0-0.625,0.512-1.13,1.131-1.13h3.771
			c0.623,0,1.129,0.506,1.129,1.13S53.734,32.539,53.111,32.539z"/>
	</g>
	<g>
		<path fill="#445462" d="M64.41,32.539h-3.768c-0.623,0-1.129-0.506-1.129-1.13c0-0.625,0.506-1.13,1.129-1.13h3.768
			c0.624,0,1.131,0.506,1.131,1.13S65.034,32.539,64.41,32.539z"/>
	</g>
	<g>
		<path fill="#445462" d="M56.45,45.297c-1.472,0-3.144-0.652-4.708-1.839c-0.496-0.377-0.594-1.086-0.217-1.583
			c0.377-0.498,1.086-0.594,1.582-0.218c1.156,0.877,2.375,1.38,3.343,1.38c0.981,0,2.168-0.489,3.341-1.38
			c0.495-0.376,1.206-0.28,1.583,0.218c0.377,0.497,0.28,1.206-0.217,1.583C59.593,44.645,57.922,45.297,56.45,45.297z"/>
	</g>
	<g>
		<path fill="#445462" d="M75.71,80c-0.623,0-1.129-0.506-1.129-1.13V68.323c0-0.624,0.506-1.132,1.129-1.132
			c0.625,0,1.131,0.508,1.131,1.132V78.87C76.841,79.494,76.335,80,75.71,80z"/>
	</g>
	<g>
		<path fill="#445462" d="M38.797,80c-0.624,0-1.13-0.506-1.13-1.13V68.323c0-0.624,0.506-1.132,1.13-1.132s1.131,0.508,1.131,1.132
			V78.87C39.928,79.494,39.421,80,38.797,80z"/>
	</g>
	<g>
		<path fill="#445462" d="M87.389,80H26.514c-0.318,0-0.622-0.135-0.837-0.371c-0.213-0.236-0.318-0.552-0.288-0.869
			c1.405-14.408,12.713-25.877,20.335-28.615c0.416-0.146,0.883-0.041,1.19,0.276c2.733,2.824,6.312,4.435,9.825,4.435
			c0.05,0,0.101,0,0.148-0.002c5.521-0.069,9.043-3.396,9.992-4.416c0.307-0.33,0.781-0.443,1.206-0.293
			c8.231,2.941,20.013,13.791,20.425,28.694c0.008,0.306-0.104,0.601-0.32,0.818C87.984,79.877,87.693,80,87.389,80z M27.787,77.74
			H86.2c-0.909-12.85-10.843-22.25-18.202-25.217c-1.604,1.531-5.449,4.515-11.072,4.591c-0.064,0-0.129,0.001-0.191,0.001
			c-3.944,0-7.781-1.619-10.898-4.588C39.172,55.335,29.541,65.413,27.787,77.74z"/>
	</g>
	<g>
		<path fill="#445462" d="M47.838,78.493c-0.625,0-1.131-0.507-1.131-1.13V64.742c0-0.252,0.084-0.495,0.238-0.693l6.68-8.59
			c0.383-0.492,1.094-0.581,1.586-0.198c0.492,0.384,0.582,1.095,0.198,1.587l-6.442,8.282v12.233
			C48.967,77.986,48.461,78.493,47.838,78.493z"/>
	</g>
	<g>
		<path fill="#FF3A65" d="M27.497,43.462c-6.232,0-11.3-5.068-11.3-11.3c0-6.231,5.068-11.299,11.3-11.299
			c3.875,0,7.437,1.952,9.527,5.22c0.337,0.526,0.183,1.225-0.344,1.561c-0.523,0.336-1.224,0.184-1.56-0.343
			c-1.673-2.616-4.523-4.178-7.623-4.178c-4.985,0-9.04,4.055-9.04,9.04s4.055,9.041,9.04,9.041c4.571,0,8.43-3.417,8.976-7.948
			c0.073-0.62,0.641-1.06,1.256-0.988c0.621,0.075,1.062,0.638,0.987,1.257C38.034,39.189,33.211,43.462,27.497,43.462z"/>
	</g>
	<g>
		<path fill="#445462" d="M66.958,44.553c-0.365,0-0.724-0.177-0.94-0.504c-0.347-0.52-0.207-1.22,0.312-1.566
			c0.406-0.271,10.003-6.896,8.676-20.829c-0.607-6.397-4.492-9.241-6.135-10.167c-0.543-0.307-0.734-0.997-0.43-1.54
			c0.308-0.544,0.996-0.734,1.539-0.429c1.951,1.1,6.562,4.464,7.271,11.92c1.459,15.316-9.217,22.621-9.672,22.925
			C67.393,44.491,67.174,44.553,66.958,44.553z"/>
	</g>
	<g>
		<path fill="#445462" d="M47.197,45.259c-0.211,0-0.424-0.059-0.613-0.182c-0.514-0.332-12.562-8.301-11.096-22.238
			c0.562-5.332,2.832-10.095,6.392-13.413c0.456-0.425,1.171-0.4,1.597,0.056c0.425,0.457,0.4,1.172-0.057,1.598
			c-3.162,2.946-5.181,7.206-5.685,11.996c-1.324,12.573,9.96,20.029,10.074,20.104c0.525,0.34,0.676,1.038,0.336,1.562
			C47.93,45.076,47.566,45.259,47.197,45.259z"/>
	</g>
	<g>
		<path fill="#445462" d="M43.669,33.967c-0.598,0-1.096-0.468-1.128-1.072c-0.032-0.621,0.444-1.151,1.063-1.187
			c0.052-0.004,1.878-0.15,4.402-1.605c2.09-1.205,4.323-5.125,5.008-6.534c0.198-0.41,0.62-0.664,1.084-0.634
			c0.457,0.027,0.854,0.328,1.002,0.76c0.403,1.174,0.948,2.387,1.317,2.974c5.418-2.861,7.544-6.275,7.565-6.311
			c0.205-0.336,0.572-0.545,0.968-0.545c0.556,0,2.248,0,7.243,9.683c0.287,0.555,0.065,1.236-0.485,1.522
			c-0.554,0.285-1.233,0.069-1.521-0.486c-1.646-3.182-3.809-6.769-4.953-8.051c-1.125,1.422-3.713,4.169-8.357,6.492
			c-0.371,0.186-0.793,0.198-1.189,0.037c-0.597-0.244-1.205-1.019-1.817-2.314c-1.099,1.809-2.833,4.272-4.729,5.367
			c-3.059,1.762-5.312,1.897-5.409,1.903C43.708,33.966,43.688,33.967,43.669,33.967z"/>
	</g>
	<g>
		<path fill="#445462" d="M53.863,71.713c-0.623,0-1.131-0.506-1.131-1.13v-3.769c0-0.623,0.508-1.129,1.131-1.129
			c0.625,0,1.131,0.506,1.131,1.129v3.769C54.994,71.207,54.488,71.713,53.863,71.713z"/>
	</g>
	<g>
		<path fill="#445462" d="M53.863,79.246c-0.623,0-1.131-0.505-1.131-1.129V74.35c0-0.623,0.508-1.129,1.131-1.129
			c0.625,0,1.131,0.506,1.131,1.129v3.771C54.994,78.741,54.488,79.246,53.863,79.246z"/>
	</g>
	<g>
		<path fill="#445462" d="M44.672,18.173c-0.215,0-0.429-0.062-0.613-0.181c-0.273-0.177-0.458-0.462-0.505-0.785L41.993,6.575
			c-0.008-0.054-0.011-0.109-0.011-0.164c0-2.319,1.746-4.285,4.672-5.26c4.257-1.419,16.078-1.657,20.277,0.022
			c2.358,0.945,3.83,2.951,3.83,5.237c0,0.054-0.007,0.109-0.015,0.164l-1.562,10.632c-0.049,0.321-0.229,0.608-0.506,0.785
			c-0.271,0.177-0.605,0.228-0.921,0.139c-0.055-0.015-5.45-1.518-11.423-1.518c-5.982,0-11.307,1.501-11.36,1.518
			C44.879,18.158,44.775,18.173,44.672,18.173z M56.342,14.353c4.604,0,8.785,0.822,10.792,1.29l1.367-9.307
			c-0.034-1.329-0.929-2.471-2.409-3.062c-3.66-1.465-14.924-1.245-18.723,0.022c-1.921,0.641-3.083,1.773-3.126,3.042l1.364,9.302
			C47.604,15.171,51.749,14.353,56.342,14.353z"/>
	</g>
	<g>
		<path fill="#445462" d="M42.331,21.293c-0.215,0-0.434-0.062-0.626-0.19c-0.52-0.346-0.66-1.047-0.313-1.567
			c0.177-0.265,1.777-2.615,3.555-3.504c0.56-0.276,1.237-0.052,1.517,0.506c0.277,0.559,0.052,1.238-0.506,1.516
			c-1.055,0.527-2.324,2.194-2.685,2.737C43.054,21.117,42.696,21.293,42.331,21.293z"/>
	</g>
	<g>
		<path fill="#445462" d="M70.412,20.513c-0.413,0-0.812-0.226-1.01-0.62c-0.021-0.037-0.662-1.25-1.838-1.839
			c-0.561-0.278-0.783-0.958-0.506-1.516s0.959-0.782,1.518-0.506c1.875,0.938,2.806,2.768,2.846,2.845
			c0.279,0.559,0.055,1.237-0.506,1.517C70.754,20.474,70.581,20.513,70.412,20.513z"/>
	</g>
	<g>
		<path fill="#445462" d="M20.717,5.419c-0.624,0-1.13-0.506-1.13-1.13c0-2.091,1.678-4.144,3.391-4.144h3.767
			c1.388,0,3.066,1.731,3.066,3.882c0,0.624-0.506,1.129-1.129,1.129c-0.624,0-1.13-0.505-1.13-1.129
			c0-0.861-0.616-1.517-0.861-1.621h-3.712c-0.312,0.04-1.131,0.916-1.131,1.883C21.847,4.913,21.341,5.419,20.717,5.419z"/>
	</g>
	<g>
		<path fill="#445462" d="M20.717,67.945H1.129C0.506,67.945,0,67.439,0,66.814V8.809c0-0.624,0.506-1.13,1.129-1.13H14.69
			c0.624,0,1.129,0.506,1.129,1.13s-0.506,1.13-1.129,1.13H2.26v55.749h18.457c0.624,0,1.13,0.506,1.13,1.129
			S21.341,67.945,20.717,67.945z"/>
	</g>
	<g>
		<path fill="#445462" d="M38.797,9.938H35.03c-0.624,0-1.129-0.506-1.129-1.13s0.506-1.13,1.129-1.13h3.767
			c0.624,0,1.131,0.506,1.131,1.13S39.421,9.938,38.797,9.938z"/>
	</g>
	<g>
		<path fill="#445462" d="M25.237,62.673H7.157c-0.625,0-1.13-0.506-1.13-1.13V9.562c0-0.624,0.506-1.13,1.13-1.13
			s1.13,0.506,1.13,1.13v50.851h16.95c0.624,0,1.129,0.506,1.129,1.13S25.861,62.673,25.237,62.673z"/>
	</g>
	<g>
		<path fill="#445462" d="M34.277,12.952h-6.374c-0.541,0-1.005-0.382-1.109-0.913c-0.133-0.684-1.017-1.676-2.098-1.676
			c-1.081,0-1.963,0.993-2.098,1.676c-0.103,0.531-0.568,0.913-1.108,0.913h-6.8c-0.624,0-1.13-0.505-1.13-1.129V7.514
			c0-1.986,1.616-3.602,3.602-3.602h14.747c1.929,0,3.498,1.569,3.498,3.498v4.412C35.407,12.446,34.901,12.952,34.277,12.952z
			 M28.701,10.691h4.446V7.41c0-0.683-0.555-1.238-1.238-1.238H17.162c-0.74,0-1.342,0.602-1.342,1.342v3.178h4.872
			c0.664-1.367,2.167-2.588,4.005-2.588C26.535,8.104,28.038,9.324,28.701,10.691z"/>
	</g>
	<circle fill="#445462" cx="74.177" cy="47.9" r="1.197"/>
	<g>
		<path fill="#445462" d="M88.52,62.673c-0.416,0-0.812-0.229-1.013-0.625c-2.405-4.812-8.427-9.562-10.214-10.901
			c-0.499-0.373-0.602-1.082-0.229-1.582c0.377-0.498,1.082-0.599,1.584-0.227c1.889,1.417,8.252,6.445,10.879,11.699
			c0.279,0.559,0.054,1.236-0.506,1.518C88.861,62.635,88.688,62.673,88.52,62.673z"/>
	</g>
</g>
</svg>
