<?xml version="1.0" encoding="utf-8"?>
<!-- Generator: Adobe Illustrator 15.0.0, SVG Export Plug-In . SVG Version: 6.00 Build 0)  -->
<!DOCTYPE svg PUBLIC "-//W3C//DTD SVG 1.1//EN" "http://www.w3.org/Graphics/SVG/1.1/DTD/svg11.dtd">
<svg version="1.1" id="Layer_1" xmlns="http://www.w3.org/2000/svg" xmlns:xlink="http://www.w3.org/1999/xlink" x="0px" y="0px"
	 width="90px" height="80px" viewBox="0 0 90 80" enable-background="new 0 0 90 80" xml:space="preserve">
<g>
	<circle fill="#445462" cx="77.531" cy="36.364" r="1.073"/>
	<g>
		<path fill="#445462" d="M65.928,79.139c-0.297,0-0.592-0.132-0.791-0.382c-0.262-0.325-6.418-8.09-8.009-16.047
			c-0.11-0.548,0.246-1.081,0.794-1.19c0.544-0.105,1.082,0.246,1.191,0.795c1.496,7.479,7.544,15.104,7.604,15.183
			c0.35,0.438,0.278,1.069-0.158,1.422C66.373,79.064,66.15,79.139,65.928,79.139z"/>
	</g>
	<g>
		<path fill="#445462" d="M68.27,79.139c-0.371,0-0.729-0.205-0.906-0.561c-0.192-0.393-4.787-9.655-4.787-16.066
			c0-0.56,0.451-1.013,1.013-1.013s1.017,0.453,1.017,1.013c0,5.938,4.527,15.068,4.574,15.16c0.25,0.501,0.049,1.109-0.451,1.359
			C68.576,79.104,68.422,79.139,68.27,79.139z"/>
	</g>
	<g>
		<path fill="#445462" d="M32.358,79.139c-0.221,0-0.444-0.072-0.631-0.224c-0.437-0.349-0.508-0.985-0.159-1.422
			c0.062-0.077,6.111-7.714,7.604-15.181c0.11-0.549,0.646-0.902,1.191-0.793c0.549,0.105,0.904,0.643,0.795,1.188
			c-1.591,7.957-7.747,15.723-8.009,16.047C32.95,79.007,32.656,79.139,32.358,79.139z"/>
	</g>
	<g>
		<path fill="#445462" d="M30.017,79.139c-0.152,0-0.306-0.035-0.452-0.104c-0.499-0.25-0.702-0.858-0.452-1.359
			c0.045-0.092,4.576-9.229,4.576-15.156c0-0.562,0.454-1.017,1.013-1.017s1.013,0.453,1.013,1.017
			c0,6.407-4.595,15.674-4.79,16.062C30.746,78.934,30.389,79.139,30.017,79.139z"/>
	</g>
	<g>
		<path fill="#445462" d="M42.941,32.022c-0.031,0-0.062-0.001-0.093-0.004c-0.558-0.051-0.968-0.543-0.917-1.101
			c0.029-0.321-0.072-1.082-0.171-1.818c-0.246-1.843-0.552-4.137,0.077-5.751c0.46-1.179,1.763-1.856,3.142-2.573
			c2.125-1.104,4.322-2.246,4.322-5.102c0-0.56,0.453-1.013,1.014-1.013c0.562,0,1.016,0.453,1.016,1.013
			c0,4.086-3.129,5.711-5.413,6.898c-0.986,0.513-2.006,1.043-2.189,1.514c-0.439,1.127-0.16,3.218,0.044,4.746
			c0.128,0.962,0.229,1.723,0.181,2.27C43.9,31.626,43.459,32.022,42.941,32.022z"/>
	</g>
	<g>
		<path fill="#445462" d="M53.271,10.491c-0.088,0-0.181-0.012-0.27-0.036c-4.693-1.274-6.134-6.785-6.189-7.019
			c-0.141-0.542,0.189-1.092,0.731-1.229c0.545-0.136,1.097,0.193,1.229,0.735c0.013,0.043,1.217,4.596,4.761,5.558
			c0.54,0.146,0.858,0.703,0.712,1.243C54.126,10.194,53.718,10.491,53.271,10.491z"/>
	</g>
	<g>
		<path fill="#445462" d="M53.646,19.583c-0.168,0-0.336-0.042-0.492-0.128c-0.487-0.271-0.664-0.887-0.396-1.375
			c0.026-0.049,2.607-4.856,0.107-9.739c-0.258-0.498-0.061-1.108,0.438-1.362c0.496-0.255,1.106-0.059,1.361,0.439
			c3.004,5.865-0.008,11.411-0.139,11.645C54.348,19.396,54.001,19.583,53.646,19.583z"/>
	</g>
	<g>
		<path fill="#445462" d="M53.438,19.808c-0.467,0-0.887-0.323-0.986-0.797c-0.118-0.547,0.229-1.086,0.771-1.205l4.151-0.905
			c0.61-1.875,2.47-8.46-0.165-12.202c-1.268-1.802-3.75-3.255-6.43-2.438c-2.836,0.863-4.016,4.404-4.117,6.575
			c-0.129,2.769,0.588,4.838,1.785,5.149c0.181,0.047,0.314,0.042,0.673,0.017c0.8-0.053,1.149-0.273,1.846-0.713
			c0.474-0.297,1.099-0.156,1.396,0.317c0.302,0.473,0.156,1.098-0.313,1.396c-0.793,0.5-1.479,0.932-2.788,1.021
			c-0.417,0.028-0.81,0.055-1.316-0.078c-2.248-0.585-3.48-3.278-3.297-7.203c0.11-2.361,1.413-7.158,5.551-8.418
			c3.646-1.112,6.984,0.812,8.675,3.21c3.696,5.252,0.37,14.215,0.229,14.594c-0.121,0.32-0.396,0.558-0.732,0.631l-4.709,1.026
			C53.58,19.801,53.508,19.808,53.438,19.808z"/>
	</g>
	<g>
		<path fill="#445462" d="M45.883,46.031c-1.388,0-2.769-0.148-4.038-0.481c-0.54-0.142-0.864-0.694-0.723-1.235
			c0.143-0.541,0.694-0.861,1.237-0.723c4.065,1.065,9.318-0.119,11.297-1.438c0.465-0.312,1.094-0.188,1.404,0.281
			c0.311,0.465,0.185,1.094-0.281,1.4C52.882,45.104,49.361,46.031,45.883,46.031z"/>
	</g>
	<g>
		<path fill="#445462" d="M30.1,43.314c-1.101,0-2.885-0.441-4.31-2.9c-0.482-0.832-0.281-1.472-0.119-1.78
			c0.503-0.949,1.787-1.188,3.127-1.304c0.523-0.481,1.597-1.371,2.576-1.572c6.967-1.433,13.587-6.159,15.741-11.239
			c0.219-0.515,0.812-0.754,1.328-0.536c0.515,0.218,0.755,0.812,0.535,1.327c-2.396,5.647-9.626,10.875-17.196,12.432
			c-0.448,0.093-1.351,0.806-1.828,1.285c-0.172,0.173-0.4,0.276-0.644,0.295c-0.927,0.067-1.415,0.159-1.672,0.238
			c1.28,2.071,2.697,1.735,2.858,1.689c0.775-0.192,3.245-1.059,4.301-1.428l0.351-0.123c8.164-2.846,14.668-8.443,17.397-14.978
			c0.217-0.516,0.811-0.759,1.324-0.544c0.518,0.216,0.76,0.81,0.544,1.325c-2.947,7.056-9.9,13.077-18.599,16.108l-0.349,0.123
			c-1.771,0.621-3.677,1.273-4.405,1.461C30.926,43.23,30.577,43.314,30.1,43.314z"/>
	</g>
	<g>
		<path fill="#445462" d="M54.219,49.473c-0.055,0-0.111-0.004-0.167-0.014c-0.552-0.092-0.925-0.613-0.833-1.165
			c0.688-4.12-0.107-7.196-0.636-9.234l-0.128-0.501c-0.562-2.226-0.038-3.349,0.826-5.209c0.525-1.128,1.244-2.674,2.029-5.112
			c0.777-2.424,1.422-6.266,1.135-8.92c-0.059-0.557,0.344-1.056,0.9-1.115c0.545-0.061,1.055,0.342,1.11,0.898
			c0.331,3.071-0.397,7.211-1.224,9.758c-0.82,2.558-1.571,4.169-2.119,5.346c-0.812,1.744-1.084,2.331-0.698,3.859l0.126,0.489
			c0.564,2.202,1.432,5.531,0.672,10.074C55.134,49.123,54.705,49.473,54.219,49.473z"/>
	</g>
	<g>
		<path fill="#445462" d="M41.175,44.768c-0.08,0-0.161-0.01-0.242-0.025c-0.543-0.137-0.876-0.686-0.742-1.229l1.334-5.443
			c0.133-0.543,0.683-0.876,1.225-0.743c0.543,0.134,0.875,0.682,0.742,1.226l-1.334,5.442
			C42.044,44.458,41.63,44.768,41.175,44.768z"/>
	</g>
	<g>
		<path fill="#445462" d="M27.646,59.232c-0.156,0-0.314-0.035-0.463-0.111l-6.824-3.516c-0.094-0.049-0.179-0.11-0.253-0.188
			c-0.111-0.109-1.09-1.145-0.843-2.662c0.225-1.387,1.385-2.609,3.448-3.645c4.734-2.367,17.629-5.416,18.175-5.547
			c0.547-0.131,1.091,0.209,1.218,0.756c0.128,0.546-0.209,1.091-0.753,1.219c-0.132,0.029-13.21,3.122-17.734,5.384
			c-1.879,0.938-2.28,1.744-2.352,2.142c-0.067,0.373,0.1,0.684,0.206,0.836l6.639,3.42c0.497,0.256,0.693,0.865,0.438,1.363
			C28.367,59.033,28.014,59.232,27.646,59.232z"/>
	</g>
	<g>
		<path fill="#445462" d="M29.237,69.77c-0.393,0-0.767-0.229-0.931-0.609l-2.342-5.469c-0.221-0.515,0.018-1.105,0.531-1.33
			c0.514-0.219,1.11,0.021,1.33,0.533l2.342,5.465c0.221,0.517-0.018,1.108-0.532,1.33C29.506,69.743,29.371,69.77,29.237,69.77z"/>
	</g>
	<g>
		<path fill="#445462" d="M14.404,79.139c-0.193,0-0.389-0.057-0.562-0.171c-0.465-0.311-0.591-0.938-0.28-1.403l1.561-2.344
			c0.128-0.188,0.314-0.332,0.533-0.402l4.168-1.338l0.337-17.873c0.011-0.56,0.462-1.018,1.032-0.989
			c0.559,0.01,1.004,0.473,0.993,1.028L21.835,74.24c-0.008,0.434-0.29,0.812-0.702,0.945l-4.521,1.453l-1.365,2.047
			C15.052,78.979,14.731,79.139,14.404,79.139z"/>
	</g>
	<g>
		<path fill="#445462" d="M23.946,79.139c-0.057,0-0.114-0.006-0.172-0.016c-0.551-0.096-0.922-0.618-0.827-1.169l3.312-19.368
			c0.094-0.551,0.615-0.921,1.169-0.827c0.551,0.095,0.921,0.617,0.827,1.169l-3.312,19.368
			C24.858,78.789,24.431,79.139,23.946,79.139z"/>
	</g>
	<g>
		<path fill="#445462" d="M34.874,46.352c-0.273,0-0.547-0.107-0.746-0.328l-2.766-3.014c-0.378-0.412-0.351-1.054,0.062-1.431
			c0.412-0.378,1.054-0.351,1.432,0.062l2.765,3.014c0.378,0.412,0.351,1.056-0.062,1.434
			C35.364,46.262,35.118,46.352,34.874,46.352z"/>
	</g>
	<g>
		<path fill="#445462" d="M28.457,39.2c-0.281,0-0.562-0.117-0.762-0.345l-6.853-7.807c-0.263-0.299-0.326-0.724-0.162-1.086
			c0.164-0.362,0.525-0.595,0.923-0.595h6.244c0.282,0,0.552,0.117,0.743,0.324l2.17,2.342c0.38,0.411,0.355,1.052-0.055,1.432
			c-0.411,0.38-1.051,0.355-1.432-0.055l-1.869-2.018H23.84l5.378,6.125c0.369,0.421,0.327,1.061-0.094,1.43
			C28.933,39.117,28.694,39.2,28.457,39.2z"/>
	</g>
	<g>
		<path fill="#445462" d="M39.558,44.789c-0.266,0-0.53-0.104-0.729-0.311l-2.724-2.83c-0.388-0.402-0.376-1.045,0.027-1.436
			c0.402-0.389,1.043-0.376,1.432,0.027l2.725,2.83c0.388,0.4,0.375,1.045-0.028,1.433C40.063,44.695,39.811,44.789,39.558,44.789z"
			/>
	</g>
	<path fill="#FF3A65" d="M75.613,23.318c0.191,0.644,0.184,1.512-0.092,2.607c-3.506,14.025-8.688,35.847-8.688,35.847H29.572
		l-1.441-3.328c0-2.635,2.138-4.771,4.772-4.771h20.164l6.479,0.812c0,0-1.364-3.147-0.812-6.479
		c1.185-7.104,6.705-17.203,8.912-21.063c0.994-1.74,2.147-3.029,3.271-3.862L75.613,23.318z"/>
	<g>
		<path fill="#445462" d="M67.027,63.123H29.53c-0.432,0-0.815-0.271-0.957-0.68l-1.42-4.076c-0.036-0.106-0.056-0.219-0.056-0.333
			c0-3.271,3.39-5.714,6.422-5.714h19.946c1.297,0,3.312,0.584,5.047,1.188c-0.695-1.574-1.111-3.803-0.451-6.775
			c1.352-6.065,5.961-14.771,8.439-19.445c0.514-0.971,0.938-1.768,1.218-2.329c0.702-1.406,2.124-2.646,3.709-3.235
			c0.524-0.196,1.105,0.071,1.304,0.596c0.193,0.524-0.069,1.106-0.598,1.302c-1.09,0.405-2.136,1.308-2.604,2.244
			c-0.286,0.572-0.717,1.384-1.24,2.372c-2.434,4.591-6.963,13.138-8.252,18.936c-1.221,5.493,1.939,7.695,1.972,7.72
			c0.433,0.293,0.573,0.863,0.323,1.322s-0.809,0.65-1.288,0.446c-1.501-0.646-5.789-2.312-7.579-2.312H33.52
			c-1.94,0-4.272,1.562-4.392,3.527L30.25,61.1h35.943c0.812-4.156,4.562-23.146,7.604-35.333c0.323-1.291,0.158-1.979-0.104-2.192
			c-0.436-0.354-0.496-0.991-0.146-1.425c0.354-0.433,0.992-0.497,1.427-0.144c0.7,0.572,1.405,1.774,0.787,4.252
			c-3.408,13.628-7.701,35.827-7.744,36.05C67.932,62.779,67.514,63.123,67.027,63.123z"/>
	</g>
	<path fill="#FF3A65" d="M72.398,22.482l-0.731-0.242c-2.048-0.681-1.446-2.572-1.446-3.834c0-2.342,0.688-6.284,0.688-6.284
		c0.68-2.048,2.892-3.157,4.938-2.478l0.729,0.243c2.049,0.68,3.153,2.891,2.479,4.939l-1.721,5.178
		C76.66,22.053,74.448,23.163,72.398,22.482z"/>
	<g>
		<path fill="#445462" d="M73.627,23.695c-0.514,0-1.034-0.081-1.546-0.251l-0.731-0.243c-2.445-0.812-3.354-2.79-2.502-5.437
			c0.086-0.469,0.623-3.356,1.063-5.821c0.306-1.697,1.226-2.562,1.94-2.988c1.17-0.694,2.738-0.793,4.312-0.272l0.729,0.244
			c2.574,0.854,3.977,3.644,3.119,6.219l-1.719,5.178C77.616,22.386,75.689,23.695,73.627,23.695z M74.195,10.378
			c-0.5,0-0.953,0.107-1.309,0.318c-0.52,0.307-0.85,0.847-0.982,1.605c-0.483,2.696-1.079,5.898-1.079,5.898
			c-0.009,0.046-0.021,0.09-0.034,0.135c-0.632,1.904,0.021,2.554,1.195,2.944l0.729,0.242c1.514,0.502,3.156-0.32,3.66-1.835
			l1.721-5.178c0.504-1.516-0.32-3.157-1.839-3.66l-0.729-0.244C75.072,10.453,74.617,10.378,74.195,10.378z"/>
	</g>
	<g>
		<path fill="#445462" d="M74.146,80.001H10.013C9.453,80.001,9,79.547,9,78.988c0-0.562,0.453-1.014,1.013-1.014h64.133
			c0.561,0,1.014,0.45,1.014,1.014C75.159,79.547,74.706,80.001,74.146,80.001z"/>
	</g>
	<g>
		<path fill="#445462" d="M72.605,61.066c-0.065,0-0.133-0.008-0.199-0.021c-0.549-0.109-0.904-0.643-0.795-1.191l4.051-20.25
			c0.109-0.549,0.648-0.902,1.191-0.795c0.549,0.11,0.901,0.644,0.795,1.191l-4.051,20.25
			C73.502,60.732,73.079,61.066,72.605,61.066z"/>
	</g>
</g>
</svg>
