<?xml version="1.0" encoding="utf-8"?>
<!-- Generator: Adobe Illustrator 15.0.0, SVG Export Plug-In . SVG Version: 6.00 Build 0)  -->
<!DOCTYPE svg PUBLIC "-//W3C//DTD SVG 1.1//EN" "http://www.w3.org/Graphics/SVG/1.1/DTD/svg11.dtd">
<svg version="1.1" id="Layer_1" xmlns="http://www.w3.org/2000/svg" xmlns:xlink="http://www.w3.org/1999/xlink" x="0px" y="0px"
	 width="90px" height="80px" viewBox="0 0 90 80" enable-background="new 0 0 90 80" xml:space="preserve">
<g>
	<path fill="#445462" d="M15.002,48.057c-0.319-0.578-1.04-0.785-1.61-0.461c-0.57,0.322-0.773,1.055-0.455,1.633
		c0.32,0.578,1.041,0.785,1.609,0.461C15.117,49.365,15.321,48.635,15.002,48.057z"/>
	<g>
		<path fill="#445462" d="M34.587,34.717h-2.976c-0.616,0-1.115-0.507-1.115-1.132s0.5-1.132,1.115-1.132h2.976
			c0.616,0,1.115,0.507,1.115,1.132S35.203,34.717,34.587,34.717z"/>
	</g>
	<g>
		<path fill="#445462" d="M18.59,36.994c-0.519,0-0.983-0.369-1.091-0.906c-0.032-0.046-0.204-0.165-0.329-0.25
			c-0.671-0.46-1.684-1.155-2.209-3.282c-0.543-2.205-0.375-3.833,0.501-4.836c0.555-0.634,1.359-0.941,2.206-0.83
			c0.611,0.078,1.044,0.644,0.967,1.265c-0.077,0.621-0.637,1.057-1.246,0.981c-0.167-0.021-0.225,0.049-0.257,0.086
			c-0.249,0.285-0.401,1.186-0.007,2.784c0.318,1.286,0.792,1.612,1.294,1.956c0.455,0.312,1.078,0.739,1.267,1.674
			c0.123,0.612-0.267,1.21-0.871,1.335C18.74,36.986,18.665,36.994,18.59,36.994z"/>
	</g>
	<g>
		<path fill="#445462" d="M47.609,36.996c-0.074,0-0.149-0.008-0.229-0.024c-0.604-0.125-0.987-0.725-0.864-1.337
			c0.188-0.935,0.812-1.361,1.268-1.674c0.502-0.344,0.977-0.67,1.294-1.956c0.372-1.512,0.258-2.408,0.024-2.742
			c-0.067-0.099-0.127-0.123-0.197-0.13c-0.611-0.061-1.062-0.616-0.998-1.238c0.06-0.621,0.605-1.083,1.221-1.014
			c0.729,0.073,1.368,0.457,1.801,1.08c0.709,1.021,0.814,2.567,0.313,4.595c-0.524,2.127-1.539,2.822-2.209,3.282
			c-0.125,0.086-0.298,0.204-0.335,0.254C48.59,36.627,48.127,36.996,47.609,36.996z"/>
	</g>
	<g>
		<path fill="#445462" d="M63.596,80H13.76c-0.616,0-1.116-0.507-1.116-1.132s0.5-1.132,1.116-1.132h48.719v-3.239
			c-0.662-10.159-8.515-18.937-18.763-21.011c-4.237,4.363-8.505,4.931-11.389,4.615c-5.542-0.017-9.874-2.979-11.44-4.604
			C10.933,55.548,3.141,64.062,2.231,73.99v3.746h4.835c0.616,0,1.115,0.507,1.115,1.132S7.682,80,7.066,80H1.115
			C0.5,80,0,79.493,0,78.868v-4.931c0-0.033,0.002-0.066,0.005-0.104C1,62.678,9.886,53.137,21.133,51.15
			c0.489-0.09,0.98,0.168,1.196,0.623c0.637,0.729,4.536,4.062,10.037,4.062c0.065,0,0.106,0.002,0.149,0.011
			c2.426,0.271,6.101-0.218,9.812-4.156c0.259-0.274,0.574-0.612,1.152-0.549c11.58,2.045,20.484,11.834,21.229,23.278l0.002,4.446
			C64.711,79.493,64.211,80,63.596,80z M22.397,52.576c-0.059,0.209-0.177,0.4-0.348,0.551
			C22.233,52.966,22.343,52.771,22.397,52.576z"/>
	</g>
	<g>
		<path fill="#445462" d="M33.102,52.453c-7.577,0-14.142-6.904-15.611-16.416c-0.095-0.619,0.322-1.197,0.93-1.294
			c0.615-0.091,1.181,0.327,1.276,0.943c1.296,8.404,6.934,14.501,13.405,14.501c6.472,0,12.109-6.102,13.405-14.501
			c0.097-0.617,0.666-1.035,1.276-0.943c0.607,0.097,1.023,0.676,0.93,1.294C47.244,45.549,40.68,52.453,33.102,52.453z"/>
	</g>
	<path fill="#445462" d="M40.312,45.082c0,0-1.458-2.684-3.127-3.812c-0.491-0.33-2.472-0.252-3.91-0.145
		c-1.438-0.107-3.418-0.188-3.909,0.145c-1.67,1.129-3.128,3.812-3.128,3.812c0.976,0.723,4.805,1.059,7.037-0.539
		C35.508,46.141,39.337,45.805,40.312,45.082z"/>
	<g>
		<path fill="#445462" d="M32.667,79.245c-0.437,0-0.834-0.259-1.016-0.663L20.494,53.676c-0.255-0.568-0.007-1.24,0.554-1.498
			c0.566-0.261,1.223-0.008,1.478,0.562l10.142,22.639L42.809,52.74c0.256-0.568,0.915-0.82,1.478-0.562
			c0.561,0.258,0.809,0.93,0.553,1.498L33.683,78.582C33.501,78.986,33.104,79.245,32.667,79.245z"/>
	</g>
	<g>
		<path fill="#445462" d="M38.538,37.827c-2.357,0-4.273-1.889-4.273-4.21c0-2.322,1.916-4.211,4.273-4.211
			c2.355,0,4.272,1.889,4.272,4.211C42.811,35.938,40.894,37.827,38.538,37.827z M38.538,31.669c-1.126,0-2.042,0.874-2.042,1.947
			c0,1.073,0.916,1.946,2.042,1.946c1.125,0,2.04-0.873,2.04-1.946C40.578,32.543,39.663,31.669,38.538,31.669z"/>
	</g>
	<g>
		<path fill="#445462" d="M28.014,37.827c-2.355,0-4.272-1.889-4.272-4.21c0-2.322,1.917-4.211,4.272-4.211
			c2.356,0,4.272,1.889,4.272,4.211C32.286,35.938,30.37,37.827,28.014,37.827z M28.014,31.669c-1.125,0-2.041,0.874-2.041,1.947
			c0,1.073,0.916,1.946,2.041,1.946s2.042-0.873,2.042-1.946C30.055,32.543,29.139,31.669,28.014,31.669z"/>
	</g>
	<g>
		<path fill="#445462" d="M73.266,62.682h-9.67c-0.639,0-1.154-0.521-1.154-1.172c0-0.646,0.52-1.172,1.154-1.172h8.516v-2.186
			H60.62c-0.638,0-1.154-0.523-1.154-1.172c0-0.646,0.517-1.172,1.154-1.172h12.646c0.637,0,1.154,0.521,1.154,1.172v4.525
			C74.42,62.156,73.902,62.682,73.266,62.682z"/>
	</g>
	<g>
		<path fill="#445462" d="M64.377,58.152c-0.359,0-0.714-0.176-0.929-0.504c-1.12-1.703-1.712-3.688-1.712-5.74v-3.984
			c0-0.625,0.498-1.131,1.115-1.131c0.612,0,1.111,0.506,1.111,1.131v3.984c0,1.604,0.467,3.154,1.342,4.484
			c0.342,0.52,0.199,1.223-0.312,1.566C64.805,58.092,64.59,58.152,64.377,58.152z"/>
	</g>
	<g>
		<path fill="#445462" d="M54.67,53.585c-0.615,0-1.115-0.507-1.115-1.132v-4.529c0-0.625,0.5-1.131,1.115-1.131
			s1.115,0.506,1.115,1.131v4.529C55.785,53.078,55.285,53.585,54.67,53.585z"/>
	</g>
	<g>
		<path fill="#445462" d="M87.803,48.302H47.23c-0.614,0-1.115-0.507-1.115-1.132s0.501-1.133,1.115-1.133H87.8L87.77,2.229
			L28.974,2.264l0.034,1.887c0,0.625-0.5,1.132-1.115,1.132c-0.616,0-1.115-0.507-1.115-1.132V2.229C26.777,1,27.763,0,28.974,0
			h58.829C89.016,0,90,1,90,2.229v43.843C90,47.302,89.016,48.302,87.803,48.302z"/>
	</g>
	<g>
		<path fill="#445462" d="M20.278,32.906c-0.325,0-0.642-0.146-0.858-0.41c-0.074-0.077-0.134-0.145-0.19-0.216
			c-0.716-0.795-1.324-1.677-1.811-2.622c-2.475-4.811-0.993-10.979-0.978-11.039c2.062-8.038,10.082-11.635,17.113-11.635
			c8.283-0.001,14.807,4.566,16.62,11.635c0.018,0.062,1.494,6.235-0.979,11.039c-0.487,0.949-1.09,1.821-1.84,2.667
			c-0.4,0.451-1.082,0.501-1.543,0.113l-11.145-9.4l-0.255,2.459c-0.037,0.352-0.233,0.666-0.531,0.849
			c-0.296,0.184-0.663,0.214-0.986,0.086c-3.193-1.272-6.516-2.308-9.894-3.084c-0.349,0.855-0.63,1.693-0.858,2.543
			c-0.515,1.898-0.768,3.873-0.753,5.874c0.003,0.479-0.29,0.908-0.734,1.072C20.536,32.884,20.406,32.906,20.278,32.906z
			 M33.782,19.682c0.256,0,0.509,0.09,0.713,0.262L46.377,29.97c0.32-0.438,0.598-0.887,0.841-1.358
			c1.779-3.459,1.081-8.312,0.798-9.422c-1.885-7.337-8.969-9.941-14.458-9.94c-6.173,0-13.191,3.074-14.955,9.941
			c-0.282,1.101-0.973,5.881,0.755,9.338c0.139-1.095,0.354-2.176,0.64-3.234c0.332-1.24,0.771-2.459,1.34-3.722
			c0.217-0.482,0.736-0.746,1.247-0.636c3.323,0.716,6.602,1.677,9.769,2.862l0.321-3.103c0.044-0.416,0.309-0.773,0.69-0.93
			C33.497,19.709,33.639,19.682,33.782,19.682z"/>
	</g>
	<g>
		<path fill="#445462" d="M42.77,29.434c-0.616,0-1.117-0.507-1.117-1.132v-5.283c0-0.625,0.501-1.132,1.117-1.132
			c0.615,0,1.115,0.507,1.115,1.132v5.283C43.885,28.927,43.385,29.434,42.77,29.434z"/>
	</g>
	<g>
		<path fill="#445462" d="M24.321,76.227c-0.285,0-0.571-0.106-0.788-0.332l-8.183-8.302c-0.246-0.249-0.363-0.601-0.317-0.95
			c0.046-0.35,0.25-0.658,0.553-0.832l3.833-2.223l-4.006-3.482c-0.439-0.383-0.517-1.041-0.181-1.519l3.719-5.282
			c0.359-0.51,1.055-0.627,1.556-0.264s0.618,1.07,0.26,1.58l-3.126,4.439l4.432,3.854c0.275,0.24,0.417,0.6,0.384,0.967
			c-0.035,0.366-0.241,0.693-0.557,0.876l-3.938,2.283l7.149,7.254c0.436,0.442,0.436,1.158,0,1.601
			C24.892,76.116,24.607,76.227,24.321,76.227z"/>
	</g>
	<g>
		<path fill="#445462" d="M39.049,80c-0.25,0-0.501-0.085-0.709-0.259c-0.476-0.397-0.543-1.111-0.151-1.595l8.975-11.039
			l-4.058-2.354c-0.315-0.185-0.523-0.51-0.557-0.876c-0.035-0.363,0.108-0.729,0.384-0.967l4.432-3.854l-3.126-4.438
			c-0.357-0.513-0.241-1.22,0.26-1.58c0.502-0.363,1.198-0.246,1.558,0.267l3.719,5.279c0.336,0.479,0.26,1.139-0.183,1.52
			l-4.005,3.481l3.833,2.224c0.284,0.166,0.483,0.449,0.543,0.777s-0.026,0.666-0.235,0.924L39.91,79.588
			C39.689,79.859,39.371,80,39.049,80z"/>
	</g>
	<g>
		<path fill="#445462" d="M74.198,20.114c-0.312,0-0.62-0.131-0.841-0.388c-0.405-0.472-0.357-1.187,0.104-1.598l8.786-7.776
			c0.194-0.173,0.233-0.405,0.239-0.526c0.013-0.229-0.066-0.454-0.221-0.631c-0.305-0.353-0.824-0.415-1.138-0.138l-2.049,1.814
			c-0.468,0.411-1.17,0.362-1.573-0.108c-0.404-0.471-0.357-1.187,0.105-1.597l2.05-1.814c1.246-1.103,3.169-0.943,4.282,0.356
			c0.533,0.62,0.808,1.41,0.77,2.225c-0.038,0.833-0.396,1.589-1.003,2.127l-8.785,7.776C74.721,20.022,74.459,20.114,74.198,20.114
			z"/>
	</g>
	<g>
		<path fill="#445462" d="M77.729,28.679c-0.293,0-0.586-0.116-0.806-0.348c-0.426-0.451-0.412-1.167,0.032-1.601l4.001-3.899
			c0.575-0.512,0.614-1.102,0.542-1.189c-0.434-0.446-0.428-1.162,0.014-1.601c0.439-0.438,1.146-0.433,1.577,0.013
			c0.455,0.469,0.69,1.124,0.664,1.843c-0.036,0.945-0.519,1.918-1.291,2.603l-3.961,3.863
			C78.284,28.575,78.006,28.679,77.729,28.679z"/>
	</g>
	<g>
		<path fill="#445462" d="M53.925,33.962c-0.251,0-0.504-0.086-0.713-0.263c-0.474-0.4-0.537-1.114-0.144-1.594
			c2.934-3.571,2.834-6.596,2.746-9.264c-0.019-0.459-0.029-0.903-0.029-1.332c0-2.719,0.984-5.233,3.398-8.679
			c0.562-0.806,0.945-1.792,1.258-2.584c0.437-1.123,0.752-1.934,1.537-2.21c0.396-0.139,0.815-0.094,1.19,0.127
			c1.853,1.091,2.896,3.242,2.438,5.004l-0.16,0.617C65.427,13.858,65.4,13.931,65.366,14l-0.63,1.279L75.547,5.71
			c0.754-0.666,1.784-0.905,2.77-0.639c1.021,0.277,1.812,1.037,2.166,2.085c0.389,1.141,0.018,2.467-0.926,3.299l-7.799,6.901
			c-0.465,0.409-1.169,0.36-1.574-0.109c-0.404-0.472-0.354-1.187,0.107-1.598l7.797-6.9c0.26-0.229,0.376-0.581,0.283-0.856
			c-0.148-0.443-0.46-0.587-0.633-0.634c-0.262-0.07-0.532-0.012-0.725,0.158L64.703,18.311c-0.568,0.504-1.387,0.577-2.035,0.178
			c-0.645-0.394-0.959-1.155-0.786-1.894c0.122-0.516,0.332-1.265,0.647-1.906l0.789-1.597l0.132-0.505
			c0.139-0.53-0.12-1.332-0.755-1.967c-0.062,0.154-0.125,0.315-0.18,0.457c-0.354,0.907-0.791,2.036-1.517,3.065
			c-2.122,3.027-2.983,5.162-2.983,7.367c0,0.405,0.014,0.823,0.024,1.256c0.101,2.921,0.216,6.555-3.265,10.79
			C54.562,33.824,54.245,33.962,53.925,33.962z"/>
	</g>
	<g>
		<path fill="#445462" d="M77.729,22.642c-0.299,0-0.599-0.122-0.813-0.361c-0.421-0.458-0.396-1.175,0.06-1.6l6.262-5.905
			c0.178-0.157,0.207-0.335,0.213-0.431c0.007-0.181-0.057-0.359-0.178-0.501c-0.248-0.289-0.791-0.635-1.191-0.333
			c-0.494,0.373-1.193,0.266-1.561-0.235c-0.369-0.501-0.268-1.211,0.229-1.583c1.438-1.08,3.232-0.464,4.199,0.663
			c0.505,0.583,0.763,1.328,0.727,2.095c-0.035,0.786-0.372,1.499-0.945,2.007l-6.233,5.88C78.271,22.542,78,22.642,77.729,22.642z"
			/>
	</g>
	<g>
		<path fill="#FF3A65" d="M64.73,24.306c-4.488,1.428-6.984,6.276-5.578,10.829c1.406,4.554,6.186,7.088,10.673,5.659
			c4.487-1.428,6.983-6.276,5.577-10.829C73.995,25.412,69.217,22.878,64.73,24.306z"/>
		<g>
			<path fill="#FFFFFF" d="M62.749,36.268c-0.226,0-0.453-0.069-0.649-0.214c-0.5-0.365-0.613-1.073-0.254-1.58
				c0.062-0.086,1.51-2.083,4.143-2.083c0.025,0,0.056,0.001,0.078,0.001c0.947,0.015,1.783,0.428,2.521,0.793
				c0.566,0.282,1.104,0.548,1.521,0.548c1.018,0,1.688-1.39,1.695-1.404c0.262-0.562,0.922-0.812,1.479-0.547
				c0.557,0.262,0.802,0.927,0.547,1.493c-0.453,1.011-1.75,2.723-3.723,2.723c-0.937,0-1.771-0.413-2.504-0.778
				c-0.578-0.287-1.125-0.557-1.572-0.563c-1.482-0.008-2.368,1.13-2.377,1.142C63.438,36.105,63.096,36.268,62.749,36.268z"/>
		</g>
		<path fill="#FFFFFF" d="M68.547,27.72c-0.668,0.212-1.04,0.935-0.83,1.612c0.21,0.679,0.922,1.056,1.59,0.843
			c0.668-0.212,1.039-0.935,0.83-1.612C69.93,27.885,69.215,27.507,68.547,27.72z"/>
	</g>
	<g>
		<path fill="#445462" d="M1.263,60.377c-0.168,0-0.338-0.038-0.499-0.119c-0.551-0.279-0.775-0.959-0.5-1.52
			c1.592-3.229,6.545-7.559,9.485-8.836c0.566-0.244,1.222,0.021,1.465,0.596c0.243,0.574-0.019,1.24-0.586,1.486
			c-2.469,1.074-7.059,5.106-8.368,7.768C2.065,60.148,1.672,60.377,1.263,60.377z"/>
	</g>
</g>
</svg>
