<?xml version="1.0" encoding="utf-8"?>
<!-- Generator: Adobe Illustrator 15.0.0, SVG Export Plug-In . SVG Version: 6.00 Build 0)  -->
<!DOCTYPE svg PUBLIC "-//W3C//DTD SVG 1.1//EN" "http://www.w3.org/Graphics/SVG/1.1/DTD/svg11.dtd">
<svg version="1.1" id="Layer_1" xmlns="http://www.w3.org/2000/svg" xmlns:xlink="http://www.w3.org/1999/xlink" x="0px" y="0px"
	 width="90px" height="80px" viewBox="0 0 90 80" enable-background="new 0 0 90 80" xml:space="preserve">
<g>
	<circle fill="#445462" cx="77.564" cy="43.96" r="1.017"/>
	<g>
		<path fill="#445462" d="M69.689,52.033H41.15c-0.539,0-0.976-0.438-0.976-0.977s0.437-0.976,0.976-0.976h28.539
			c1.299,0,2.355-1.057,2.355-2.355V13.333c0-0.539,0.437-0.976,0.976-0.976c0.538,0,0.976,0.437,0.976,0.976v34.392
			C73.996,50.101,72.064,52.033,69.689,52.033z"/>
	</g>
	<g>
		<path fill="#445462" d="M77.573,40.976c-0.539,0-0.976-0.437-0.976-0.976V21.789c0-0.539,0.437-0.976,0.976-0.976
			c0.538,0,0.976,0.437,0.976,0.976V40C78.549,40.539,78.111,40.976,77.573,40.976z"/>
	</g>
	<g>
		<path fill="#445462" d="M50.256,80c-0.539,0-0.975-0.437-0.975-0.976V51.707c0-0.539,0.436-0.975,0.975-0.975
			s0.977,0.436,0.977,0.975v27.317C51.232,79.563,50.795,80,50.256,80z"/>
	</g>
	<path fill="#FF3A65" d="M75.297,8.455H36.923l1.301,3.252h36.423c1.301,0,1.301-0.403,1.301-1.301
		C75.947,9.508,75.947,8.455,75.297,8.455z"/>
	<g>
		<path fill="#445462" d="M74.826,13.008H38.549c-0.539,0-0.976-0.437-0.976-0.976s0.437-0.976,0.976-0.976h36.277
			c0.063,0,0.112-0.003,0.151-0.007c0.012-0.144,0.006-0.368,0.001-0.544c-0.003-0.137-0.007-0.279-0.007-0.424
			c0-0.146,0.004-0.288,0.007-0.424c0.005-0.176,0.011-0.401-0.001-0.544c-0.039-0.004-0.088-0.007-0.151-0.007H37.248
			c-0.539,0-0.976-0.437-0.976-0.976s0.437-0.976,0.976-0.976h37.578c0.698,0,1.217,0.185,1.586,0.563
			c0.555,0.569,0.534,1.324,0.517,1.991c-0.003,0.121-0.006,0.246-0.006,0.374c0,0.127,0.003,0.252,0.006,0.373
			c0.018,0.667,0.038,1.422-0.517,1.991C76.043,12.824,75.524,13.008,74.826,13.008z"/>
	</g>
	<g>
		<path fill="#445462" d="M54.158,56.586c-0.538,0-0.975-0.438-0.975-0.977v-4.553c0-0.539,0.437-0.976,0.975-0.976
			c0.539,0,0.977,0.437,0.977,0.976v4.553C55.135,56.148,54.697,56.586,54.158,56.586z"/>
	</g>
	<ellipse fill="#445462" cx="54.158" cy="57.633" rx="2.275" ry="2.205"/>
	<g>
		<path fill="#445462" d="M33.321,79.553c-0.539,0-0.976-0.437-0.976-0.976c0-1.009-0.821-1.829-1.829-1.829h-8.374
			c-1.009,0-1.83,0.82-1.83,1.829c0,0.539-0.437,0.976-0.976,0.976s-0.976-0.437-0.976-0.976c0-2.085,1.696-3.78,3.781-3.78h8.374
			c2.084,0,3.78,1.695,3.78,3.78C34.296,79.116,33.859,79.553,33.321,79.553z"/>
	</g>
	<g>
		<path fill="#445462" d="M35.948,42.927c-0.555-0.009-0.985-0.452-0.976-0.991l0.144-8.788c0-3.085-1.809-5.997-4.608-7.402
			c-0.481-0.242-0.676-0.828-0.434-1.31c0.242-0.482,0.83-0.676,1.31-0.435c3.453,1.733,5.684,5.329,5.684,9.162l-0.144,8.803
			C36.914,42.5,36.479,42.927,35.948,42.927z"/>
	</g>
	<g>
		<path fill="#445462" d="M16.435,42.276c-0.512,0-0.941-0.397-0.973-0.915l-0.507-8.137c-0.002-3.892,2.229-7.489,5.683-9.222
			c0.481-0.241,1.067-0.047,1.31,0.435c0.242,0.481,0.047,1.068-0.434,1.31c-2.8,1.405-4.609,4.317-4.609,7.417l0.505,8.077
			c0.034,0.537-0.375,1-0.914,1.034C16.475,42.275,16.455,42.276,16.435,42.276z"/>
	</g>
	<g>
		<path fill="#445462" d="M30.699,76.24c-0.022,0-0.043,0-0.065-0.002c-0.538-0.035-0.945-0.5-0.91-1.037l0.915-13.834
			c0.036-0.538,0.519-0.939,1.038-0.909c0.538,0.036,0.945,0.501,0.91,1.038l-0.915,13.833C31.637,75.845,31.208,76.24,30.699,76.24
			z"/>
	</g>
	<g>
		<path fill="#445462" d="M22.069,76.24c-0.507,0-0.936-0.393-0.972-0.908l-0.915-13.164c-0.038-0.537,0.368-1.003,0.906-1.04
			c0.529-0.042,1.003,0.367,1.041,0.905l0.915,13.164c0.038,0.538-0.368,1.004-0.906,1.041C22.115,76.24,22.092,76.24,22.069,76.24z
			"/>
	</g>
	<g>
		<path fill="#445462" d="M26.334,79.35c-0.539,0-0.976-0.438-0.976-0.976V62.113c0-0.538,0.437-0.975,0.976-0.975
			s0.976,0.437,0.976,0.975v16.261C27.31,78.912,26.873,79.35,26.334,79.35z"/>
	</g>
	<g>
		<path fill="#445462" d="M26.062,23.542c-3.852,0-4.955-4.41-5.37-6.07c-0.131-0.523,0.187-1.052,0.709-1.183
			c0.524-0.13,1.053,0.187,1.183,0.709c0.805,3.219,1.845,4.592,3.477,4.592c2.133,0,3.401-3.215,3.711-6.401
			c0.053-0.537,0.527-0.929,1.065-0.876c0.536,0.053,0.929,0.53,0.877,1.066C31.224,20.414,29.058,23.542,26.062,23.542z"/>
	</g>
	<g>
		<path fill="#445462" d="M19.145,22.436c-1.289,0-2.562-0.432-3.543-1.21c-0.258-0.205-0.395-0.525-0.365-0.853
			c0.031-0.328,0.224-0.618,0.514-0.772c2.589-1.376,2.552-3.076,2.479-6.459c-0.012-0.556-0.025-1.142-0.025-1.759
			c0-2.001,0.741-3.774,2.143-5.128c1.509-1.458,3.729-2.326,5.843-2.244c3.927,0.137,7.903,2.712,7.903,7.372
			c0,0.617-0.013,1.203-0.024,1.759c-0.073,3.384-0.11,5.083,2.479,6.459c0.29,0.154,0.483,0.444,0.514,0.772
			c0.03,0.328-0.107,0.648-0.365,0.853c-0.934,0.741-2.132,1.17-3.374,1.207c-0.547,0.035-0.988-0.407-1.004-0.946
			c-0.017-0.539,0.407-0.988,0.946-1.004c0.307-0.01,0.613-0.056,0.907-0.136c-2.17-1.854-2.118-4.289-2.053-7.249
			c0.011-0.542,0.024-1.114,0.024-1.716c0-3.825-3.6-5.338-6.02-5.422c-1.613-0.05-3.279,0.596-4.42,1.698
			c-1.013,0.978-1.547,2.265-1.547,3.724c0,0.602,0.013,1.173,0.024,1.716c0.064,2.959,0.117,5.395-2.053,7.249
			c0.409,0.111,0.84,0.155,1.262,0.13c0.543-0.031,1.002,0.373,1.037,0.91c0.035,0.538-0.373,1.002-0.91,1.037
			C19.392,22.432,19.268,22.436,19.145,22.436z"/>
	</g>
	<g>
		<path fill="#445462" d="M22.831,14.607c-0.302,0-0.601-0.14-0.792-0.404c-0.316-0.437-0.217-1.047,0.219-1.362
			c1.796-1.298,3.345-2.906,4.604-4.78c0.3-0.449,0.908-0.566,1.354-0.266c0.448,0.3,0.566,0.906,0.266,1.354
			c-1.388,2.067-3.097,3.841-5.08,5.274C23.229,14.548,23.029,14.607,22.831,14.607z"/>
	</g>
	<g>
		<path fill="#445462" d="M32.835,17.005c-0.131,0-0.264-0.026-0.391-0.082c-1.441-0.631-2.789-1.453-4.005-2.442
			c-1.14-0.927-2.159-1.996-3.028-3.176c-0.32-0.433-0.228-1.044,0.207-1.364c0.433-0.321,1.043-0.228,1.364,0.207
			c0.772,1.047,1.677,1.996,2.689,2.819c1.081,0.878,2.277,1.608,3.557,2.169c0.494,0.216,0.718,0.792,0.502,1.285
			C33.569,16.787,33.211,17.005,32.835,17.005z"/>
	</g>
	<g>
		<path fill="#445462" d="M26.058,35.635c-0.331,0-0.64-0.168-0.819-0.446c-0.492-0.761-4.817-7.506-5.214-9.995
			c-0.084-0.532,0.277-1.032,0.81-1.117c0.536-0.085,1.032,0.278,1.117,0.81c0.213,1.334,2.345,5.101,4.067,7.884
			c1.398-2.479,3.51-6.442,3.764-7.897c0.092-0.531,0.606-0.887,1.129-0.793c0.531,0.093,0.886,0.598,0.793,1.129
			c-0.428,2.45-4.359,9.186-4.807,9.946c-0.171,0.292-0.482,0.473-0.82,0.481C26.072,35.635,26.065,35.635,26.058,35.635z"/>
	</g>
	<g>
		<path fill="#445462" d="M26.334,63.09h-0.281c-2.11-0.032-4.133-0.283-6.2-0.768c-1.891-0.465-3.56-1.323-6.368-2.955
			c-0.348-0.201-0.537-0.597-0.474-0.994c0.969-6.178,2.417-12.689,6.395-18.515c0.169-2.091-0.032-3.982-0.598-5.625
			c-0.214-0.611-0.264-3.099-0.083-4.155c0.091-0.53,0.596-0.885,1.126-0.796c0.531,0.091,0.887,0.596,0.796,1.127
			c-0.152,0.887-0.069,2.876,0.014,3.22c0.671,1.941,0.898,4.193,0.665,6.663c-0.016,0.167-0.074,0.328-0.17,0.466
			c-3.725,5.353-5.167,11.433-6.113,17.258c2.3,1.32,3.74,2.035,5.266,2.409c1.917,0.45,3.805,0.685,5.758,0.714h0.266
			c0.539,0,0.976,0.437,0.976,0.975C27.31,62.652,26.873,63.09,26.334,63.09z"/>
	</g>
	<g>
		<path fill="#445462" d="M25.684,63.09c-0.539,0-0.976-0.438-0.976-0.977c0-0.538,0.437-0.975,0.976-0.975h0.269
			c1.939-0.029,3.826-0.264,5.754-0.716c1.516-0.374,2.955-1.087,5.255-2.407c-0.946-5.825-2.388-11.905-6.113-17.258
			c-0.096-0.139-0.155-0.299-0.17-0.466c-0.231-2.452-0.009-4.69,0.661-6.653c0.037-0.306-0.062-1.446-0.257-2.579
			c-0.091-0.531,0.266-1.036,0.796-1.127c0.537-0.091,1.036,0.266,1.127,0.796c0.141,0.818,0.439,2.797,0.19,3.509
			c-0.565,1.639-0.766,3.53-0.597,5.621c3.978,5.825,5.426,12.337,6.395,18.515c0.063,0.397-0.125,0.793-0.474,0.994
			c-2.809,1.632-4.478,2.49-6.358,2.953c-2.077,0.486-4.1,0.737-6.195,0.77H25.684z"/>
	</g>
	<g>
		<path fill="#445462" d="M30.887,7.154c-0.146,0-0.295-0.033-0.436-0.103c-0.482-0.242-0.677-0.827-0.437-1.309l1.457-2.913
			c-1.134-0.364-3.047-0.879-4.784-0.879c-2.198,0-3.18,0-5.503,0.85l1.47,2.941c0.241,0.482,0.046,1.067-0.436,1.309
			c-0.481,0.241-1.068,0.045-1.309-0.437l-1.951-3.902c-0.122-0.244-0.136-0.528-0.04-0.783c0.097-0.255,0.297-0.458,0.55-0.559
			C22.895,0,24.083,0,26.687,0c3.053,0,6.374,1.315,6.514,1.371c0.253,0.101,0.453,0.304,0.55,0.559
			c0.096,0.255,0.083,0.539-0.04,0.783L31.76,6.615C31.589,6.957,31.245,7.154,30.887,7.154z"/>
	</g>
	<g>
		<path fill="#445462" d="M78.224,80h-9.191c-0.539,0-0.976-0.437-0.976-0.976s0.437-0.976,0.976-0.976h9.191
			c0.538,0,0.976,0.437,0.976,0.976S78.762,80,78.224,80z"/>
	</g>
	<g>
		<path fill="#445462" d="M63.774,80h-48.64c-0.539,0-0.976-0.437-0.976-0.976s0.437-0.976,0.976-0.976h48.64
			c0.538,0,0.976,0.437,0.976,0.976S64.312,80,63.774,80z"/>
	</g>
	<g>
		<path fill="#445462" d="M56.761,79.35c-0.341,0-0.672-0.179-0.851-0.497l-5.574-9.909h-0.189l-6.217,9.947
			c-0.287,0.457-0.889,0.595-1.345,0.311c-0.457-0.285-0.596-0.888-0.311-1.344l6.504-10.406c0.179-0.286,0.491-0.459,0.827-0.459
			h1.301c0.354,0,0.678,0.189,0.851,0.497l5.854,10.406c0.264,0.47,0.097,1.064-0.373,1.329C57.088,79.31,56.923,79.35,56.761,79.35
			z"/>
	</g>
	<g>
		<path fill="#445462" d="M54.789,42.619c-3.277,0-4.551-1.42-5.312-2.269c-0.102-0.114-0.229-0.257-0.325-0.346
			c-0.061,0.091-0.134,0.224-0.188,0.321c-0.331,0.594-0.946,1.699-2.502,1.699c-2.219,0-5.14-2.485-5.14-3.95
			c0-0.624,0.289-1.011,0.53-1.226c0.727-0.646,1.884-0.51,2.813-0.4c0.066,0.007,0.13,0.015,0.192,0.022
			c0.105-0.239,0.234-0.579,0.338-0.852c0.475-1.252,1.013-2.672,2.021-3.176c1.438-0.719,2.691-0.036,3.207,0.48
			c0.381,0.381,0.381,1,0,1.38c-0.381,0.381-1,0.381-1.379,0c-0.089-0.08-0.456-0.366-0.956-0.114
			c-0.336,0.19-0.849,1.544-1.067,2.122c-0.473,1.245-0.812,2.144-1.748,2.144c-0.246,0-0.532-0.034-0.835-0.069
			c-0.242-0.028-0.656-0.077-0.972-0.08c0.537,0.673,1.96,1.768,2.997,1.768c0.373,0,0.478-0.124,0.797-0.698
			c0.289-0.518,0.771-1.384,1.88-1.384c0.845,0,1.348,0.561,1.792,1.056c0.647,0.722,1.453,1.621,3.859,1.621
			c1.825,0,3.348-0.779,5.258-2.689c0.947-0.948,1.195-3.177,1.395-4.969c0.118-1.066,0.221-1.987,0.452-2.68
			c0.367-1.103,1.196-1.525,1.862-1.863c0.831-0.423,1.548-0.788,1.982-2.526c0.338-1.351,0-2.39-1.006-3.085
			c-1.336-0.923-3.463-0.94-4.333-0.337c-3.159,2.188-2.058,4.717-2.046,4.742c0.223,0.491,0.006,1.069-0.484,1.292
			c-0.494,0.224-1.069,0.006-1.292-0.484c-0.632-1.388-0.876-4.67,2.712-7.154c1.643-1.138,4.644-0.982,6.553,0.337
			c1.67,1.154,2.321,3.036,1.79,5.163c-0.65,2.601-2.059,3.317-2.991,3.791c-0.591,0.301-0.79,0.424-0.896,0.742
			c-0.166,0.497-0.262,1.363-0.364,2.279c-0.232,2.095-0.522,4.701-1.953,6.132C59.814,40.971,57.766,42.619,54.789,42.619z"/>
	</g>
	<g>
		<path fill="#445462" d="M55.979,34.291c-0.408,0-0.789-0.258-0.926-0.667c-0.248-0.742-1.055-1.263-2.076-1.923
			c-0.776-0.501-1.656-1.069-2.447-1.86c-1.982-1.982-2.625-5.724-2.651-5.883c-0.088-0.531,0.271-1.033,0.802-1.122
			c0.536-0.091,1.033,0.27,1.123,0.8c0.006,0.033,0.568,3.287,2.107,4.825c0.644,0.644,1.396,1.13,2.125,1.6
			c1.182,0.764,2.404,1.553,2.869,2.945c0.17,0.511-0.105,1.064-0.617,1.234C56.185,34.275,56.08,34.291,55.979,34.291z"/>
	</g>
</g>
</svg>
