<?xml version="1.0" encoding="utf-8"?>
<!-- Generator: Adobe Illustrator 15.0.0, SVG Export Plug-In . SVG Version: 6.00 Build 0)  -->
<!DOCTYPE svg PUBLIC "-//W3C//DTD SVG 1.1//EN" "http://www.w3.org/Graphics/SVG/1.1/DTD/svg11.dtd">
<svg version="1.1" id="Layer_1" xmlns="http://www.w3.org/2000/svg" xmlns:xlink="http://www.w3.org/1999/xlink" x="0px" y="0px"
	 width="90px" height="80px" viewBox="0 0 90 80" enable-background="new 0 0 90 80" xml:space="preserve">
<g>
	<g>
		<polygon fill="#FF3A65" points="35.791,49.043 45.215,52.452 39.413,58.477 34.687,49.128 		"/>
	</g>
	<g>
		<polygon fill="#FF3A65" points="56.793,49.043 47.369,52.452 53.17,58.477 57.896,49.128 		"/>
	</g>
	<g>
		<path fill="#445462" d="M26.407,74.846v-8.718c0-1.422,2.151-1.424,2.151,0v8.718C28.559,76.268,26.407,76.27,26.407,74.846z"/>
	</g>
	<g>
		<g>
			<path fill="#445462" d="M16.582,68.402c0.63-9.646,7.197-18.576,18.907-20.954c1.612-0.306,1.992,1.823,0.411,2.112
				C25.421,51.613,19.307,59.684,18.73,68.54C18.638,69.964,16.49,69.822,16.582,68.402z"/>
		</g>
		<g>
			<g>
				<path fill="#445462" d="M67.62,55.872c-3.144-3.39-7.229-5.517-11.524-6.283c-1.406-0.252-1.013-2.377,0.381-2.118
					c4.75,0.85,9.269,3.209,12.726,6.938C70.165,55.451,68.587,56.916,67.62,55.872z"/>
			</g>
			<g>
				<path fill="#445462" d="M16.958,69.284c-1.076-0.929,0.33-2.56,1.407-1.627c7.408,6.403,17.046,10.188,27.494,10.188
					c9.711-0.022,12.115-2.875,12.688-0.841c0.161,0.572-0.171,1.167-0.739,1.328C43.677,82.332,28.266,79.061,16.958,69.284z"/>
			</g>
		</g>
	</g>
	<g>
		<path fill="#445462" d="M35.094,49.312l1.395-1.643c5.808,4.938,13.326,4.93,19.109,0.038l1.389,1.646
			C50.411,54.915,41.718,54.943,35.094,49.312z"/>
	</g>
	<g>
		<path fill="#445462" d="M38.906,60.216c-0.698-0.104-0.321,0.292-6.52-10.643c-0.702-1.239,1.173-2.298,1.872-1.062
			c1.578,2.785,2.95,5.19,5.063,8.91c1.726-1.636,3.251-3.073,5.669-5.369c1.029-0.979,2.515,0.581,1.482,1.562
			C39.275,60.45,39.59,60.316,38.906,60.216z"/>
	</g>
	<g>
		<path fill="#445462" d="M45.68,53.614c-1.031-0.979,0.45-2.541,1.481-1.562c0.728,0.688,3.125,2.97,5.668,5.373l5.01-8.829
			c0.7-1.236,2.573-0.178,1.871,1.062c-6.112,10.773-5.744,10.445-6.461,10.556C52.584,60.318,52.96,60.541,45.68,53.614z"/>
	</g>
	<g>
		<path fill="#445462" d="M45.602,72.645L32.535,50.021c-0.711-1.229,1.15-2.312,1.863-1.076l13.065,22.621
			C48.178,72.803,46.311,73.872,45.602,72.645z"/>
	</g>
	<g>
		<path fill="#445462" d="M45.607,71.311L57.266,49.25c0.666-1.259,2.566-0.252,1.902,1.006L47.512,72.316
			C46.846,73.574,44.943,72.566,45.607,71.311z"/>
	</g>
	<g>
		<g>
			<path fill="#445462" d="M79.598,67.551H65.416c-0.593,0-1.073-0.48-1.073-1.072v-4.053c0-0.593,0.48-1.074,1.073-1.074h14.182
				c0.592,0,1.072,0.481,1.072,1.074v4.053C80.67,67.07,80.189,67.551,79.598,67.551z M66.488,65.402h12.035v-1.903H66.488V65.402z"
				/>
		</g>
		<g>
			<path fill="#445462" d="M82.372,77.734H62.641c-1.854,0-3.363-1.51-3.363-3.363v-3.107c0-3.261,2.654-5.914,5.916-5.914H79.82
				c3.261,0,5.914,2.653,5.914,5.914v3.107C85.734,76.227,84.227,77.734,82.372,77.734z M65.191,67.497
				c-2.076,0-3.771,1.688-3.771,3.767v3.107c0,0.67,0.55,1.216,1.22,1.216H82.37c0.67,0,1.216-0.546,1.216-1.216v-3.107
				c0-2.076-1.689-3.767-3.77-3.767H65.191z"/>
		</g>
		<g>
			<path fill="#FF3A65" d="M83.068,44.107L83.068,44.107c-0.148-0.44,0.089-0.92,0.529-1.068l4.852-1.637
				c1.091-6.139-0.157-11.075-0.564-12.524C74.646,34.11,67.451,48.562,71.318,62.309c7.809-3.086,14.432-9.927,16.72-18.981
				l-3.899,1.312C83.697,44.787,83.218,44.551,83.068,44.107z"/>
		</g>
		<g>
			<path fill="#445462" d="M66.913,73.544c2.618-9.556,6.334-19.147,11.228-28.45c0.659-1.255,2.562-0.259,1.899,0.999
				c-4.681,8.899-8.396,18.306-11.058,28.021C68.607,75.482,66.537,74.911,66.913,73.544z"/>
		</g>
	</g>
	<g>
		<path fill="#445462" d="M19.036,42.368C9.151,44.636,0,37.063,0,27.226c0-14.388,18.383-21.464,27.795-9.46
			c0.877,1.119-0.815,2.45-1.694,1.328C17.958,8.708,2.152,14.853,2.152,27.226c0,8.724,8.28,15.232,16.888,12.925
			c1.071-0.288,1.108,0.904,3.682,1.923c1.272,0.509,2.477,0.631,3.474,0.594c-1.753-2.642-1.3-5.82-0.766-6.409
			c0.706-0.777,1.32-1.635,1.827-2.549c0.69-1.243,2.573-0.203,1.884,1.042c-0.541,0.976-1.188,1.896-1.925,2.738
			c-0.396,1.974,0.341,3.904,1.786,5.134c0.662,0.563,0.414,1.644-0.428,1.86C25.338,45.322,21.793,44.631,19.036,42.368z"/>
	</g>
	<g>
		<path fill="#445462" d="M66.48,21.68c-1.502,0-1.504-2.273,0-2.273C67.982,19.406,67.984,21.68,66.48,21.68z"/>
	</g>
	<g>
		<path fill="#445462" d="M30.806,31.004c-0.03-0.049-0.213-0.178-0.335-0.263c-0.648-0.456-1.629-1.146-2.135-3.247
			c-1.28-5.321,1.987-6.413,3.862-5.1c1.159,0.812-0.063,2.573-1.23,1.758c-0.961-0.673-0.86,1.532-0.546,2.839
			c0.598,2.481,2.13,1.758,2.497,3.627c0.114,0.582-0.265,1.145-0.847,1.26C31.411,32.009,30.806,31.46,30.806,31.004z"/>
	</g>
	<g>
		<path fill="#445462" d="M59.971,31.865c-1.007-0.197-1.429-1.617,0.363-2.879c0.497-0.35,0.967-0.68,1.283-1.994
			c0.408-1.698,0.309-3.436-0.545-2.839c-1.162,0.812-2.396-0.944-1.23-1.758c1.86-1.302,5.147-0.248,3.861,5.1
			c-0.506,2.101-1.486,2.791-2.135,3.247c-0.121,0.085-0.305,0.214-0.336,0.264C61.121,31.579,60.562,31.979,59.971,31.865z"/>
	</g>
	<g>
		<path fill="#445462" d="M46.021,47.361c-7.391,0-13.789-6.887-15.213-16.376c-0.211-1.399,1.909-1.728,2.121-0.319
			c1.27,8.431,6.774,14.549,13.092,14.549c6.314,0,11.819-6.119,13.092-14.549c0.211-1.407,2.332-1.082,2.121,0.319
			C59.807,40.474,53.408,47.361,46.021,47.361z"/>
	</g>
	<g>
		<path fill="#445462" d="M42.986,30.431h-3.292c-1.417,0-1.419-2.146,0-2.146h3.292c0.593,0,1.073,0.48,1.073,1.073
			C44.059,29.951,43.579,30.431,42.986,30.431z"/>
	</g>
	<g>
		<path fill="#445462" d="M53.334,30.431h-3.292c-1.418,0-1.42-2.146,0-2.146h3.292c0.593,0,1.073,0.48,1.073,1.073
			C54.407,29.951,53.927,30.431,53.334,30.431z"/>
	</g>
	<g>
		<path fill="#445462" d="M41.657,40.13c-1.135-0.86,0.17-2.566,1.296-1.71c2.019,1.529,4.119,1.527,6.136,0
			c1.128-0.856,2.429,0.852,1.296,1.71C47.657,42.198,44.504,42.288,41.657,40.13z"/>
	</g>
	<g>
		<path fill="#445462" d="M65.165,16.345c-0.504-5.619-3.392-10.219-9.181-13.294c-1.129-0.432-2.246-0.773-3.7-0.908
			c-1.423-0.13-1.204-2.278,0.196-2.137c1.854,0.171,3.787,0.765,4.72,1.261c7.606,4.033,9.692,10.321,10.103,14.885
			c0.053,0.591-0.383,1.112-0.973,1.165C65.715,17.367,65.216,16.917,65.165,16.345z"/>
	</g>
	<g>
		<path fill="#445462" d="M31.854,25.836c-1.8-2.835-3.472-9.265,1.676-15.376c1.531-1.817,3.771-3.053,5.938-4.248
			c6.517-3.595,4.081-3.931,5.255-4.823c1.02-0.773,4.003,0.825,5.612,3.606C59.066,4.213,65.9,15.671,60.537,25.759
			c-0.665,1.251-2.561,0.247-1.895-1.007c2.133-4.02,3.461-12.739-4.74-17.13c-3.313-1.248-4.486,0.346-5.135-1.001
			c-0.811-1.679-1.908-2.574-2.701-2.997C44.41,7.111,37.98,8.507,35.17,11.843c-4.349,5.161-2.992,10.501-1.506,12.843
			c0.317,0.5,0.17,1.164-0.331,1.481C32.835,26.484,32.172,26.336,31.854,25.836z"/>
	</g>
	<g>
		<path fill="#445462" d="M31.691,25.166c0.284-3.188,1.399-6.138,3.137-8.621c0.311-0.445,0.904-0.586,1.384-0.332
			c6.259,3.337,12.582,3.562,16.104,0.573c2.125-1.803,0.572-2.919,1.959-3.459c0.754-0.292,1.146,0.256,1.754,0.794
			c1.477,1.316,5.082,4.245,4.633,11.204c-0.094,1.427-2.232,1.271-2.143-0.138c0.129-2.001-0.207-4.029-0.975-5.866
			c-0.495-1.186-1.395-2.159-2.221-2.938c-1.418,3.425-8.909,7.235-19.252,2.17c-1.227,1.998-2.025,4.303-2.247,6.803
			C33.705,26.766,31.566,26.581,31.691,25.166z"/>
	</g>
</g>
</svg>
