<?xml version="1.0" encoding="utf-8"?>
<!-- Generator: Adobe Illustrator 15.0.0, SVG Export Plug-In . SVG Version: 6.00 Build 0)  -->
<!DOCTYPE svg PUBLIC "-//W3C//DTD SVG 1.1//EN" "http://www.w3.org/Graphics/SVG/1.1/DTD/svg11.dtd">
<svg version="1.1" id="Layer_1" xmlns="http://www.w3.org/2000/svg" xmlns:xlink="http://www.w3.org/1999/xlink" x="0px" y="0px"
	 width="90px" height="80px" viewBox="0 0 90 80" enable-background="new 0 0 90 80" xml:space="preserve">
<g>
	<g>
		<path fill="#445462" d="M82.52,62.277H55.417c-0.614,0-1.112-0.498-1.112-1.111s0.498-1.111,1.112-1.111H82.52
			c1.612,0,2.926-1.312,2.926-2.926V6.302c0-0.614,0.498-1.112,1.111-1.112s1.111,0.498,1.111,1.112v50.827
			C87.668,59.969,85.357,62.277,82.52,62.277z"/>
	</g>
	<g>
		<path fill="#445462" d="M59.124,67.469c-0.614,0-1.112-0.498-1.112-1.111V61.17c0-0.609,0.498-1.107,1.112-1.107
			s1.112,0.498,1.112,1.107v5.188C60.236,66.971,59.738,67.469,59.124,67.469z"/>
	</g>
	<g>
		<path fill="#445462" d="M59.268,73.072c-2.134,0-3.871-1.697-3.871-3.783c0-2.087,1.737-3.784,3.871-3.784
			c2.135,0,3.871,1.697,3.871,3.784C63.139,71.375,61.402,73.072,59.268,73.072z M59.268,67.729c-0.906,0-1.646,0.701-1.646,1.562
			c0,0.857,0.739,1.561,1.646,1.561c0.908,0,1.646-0.699,1.646-1.561S60.176,67.729,59.268,67.729z"/>
	</g>
	<path fill="#FF3A65" d="M28.651,58.57h-0.316l0.762,13.346l-2.966,5.932l-2.224-6.673l0.636-12.604h-0.315
		c-0.697,0-1.22-0.637-1.083-1.316l0.448-2.238c0.104-0.518,0.556-0.89,1.083-0.89h3.527c0.526,0,0.979,0.372,1.083,0.89
		l0.448,2.239C29.87,57.934,29.348,58.57,28.651,58.57z"/>
	<g>
		<path fill="#445462" d="M39.007,38.265c-0.073,0-0.147-0.008-0.223-0.021c-0.603-0.119-0.985-0.721-0.866-1.324
			c0.171-0.872,0.76-1.286,1.15-1.561c0.442-0.31,0.823-0.578,1.095-1.704c0.421-1.755,0.096-2.396-0.016-2.471
			c-0.025-0.017-0.132-0.007-0.246,0.072c-0.502,0.352-1.196,0.232-1.549-0.272s-0.229-1.196,0.273-1.549
			c0.871-0.61,1.958-0.645,2.773-0.088c0.818,0.556,1.643,1.846,0.926,4.828c-0.467,1.943-1.413,2.608-1.978,3.005
			c-0.1,0.069-0.234,0.165-0.268,0.204C39.977,37.912,39.522,38.265,39.007,38.265z"/>
	</g>
	<g>
		<path fill="#445462" d="M13.563,38.247c-0.521,0-0.985-0.368-1.09-0.898l-0.001-0.006l0,0c-0.014,0-0.148-0.094-0.247-0.164
			c-0.564-0.397-1.51-1.062-1.977-3.005c-0.718-2.981,0.106-4.271,0.925-4.828c0.814-0.556,1.902-0.521,2.774,0.088
			c0.503,0.353,0.625,1.045,0.272,1.549c-0.354,0.504-1.046,0.624-1.549,0.272c-0.114-0.08-0.222-0.089-0.246-0.072
			c-0.11,0.075-0.437,0.715-0.015,2.471c0.271,1.126,0.652,1.394,1.095,1.704c0.39,0.275,0.979,0.689,1.15,1.561
			c0.118,0.603-0.274,1.188-0.877,1.305C13.707,38.239,13.635,38.247,13.563,38.247z"/>
	</g>
	<g>
		<path fill="#445462" d="M26.286,52.145c-6.714,0-12.526-6.242-13.821-14.845c-0.091-0.607,0.327-1.174,0.935-1.266
			c0.61-0.094,1.173,0.327,1.266,0.934c1.129,7.505,6.017,12.953,11.621,12.953s10.491-5.448,11.621-12.953
			c0.091-0.607,0.651-1.028,1.266-0.934c0.606,0.091,1.024,0.659,0.934,1.266C38.812,45.902,32.999,52.145,26.286,52.145z"/>
	</g>
	<g>
		<path fill="#445462" d="M32.434,37.071h-2.966c-0.614,0-1.112-0.499-1.112-1.112c0-0.614,0.498-1.112,1.112-1.112h2.966
			c0.613,0,1.111,0.498,1.111,1.112C33.545,36.572,33.047,37.071,32.434,37.071z"/>
	</g>
	<g>
		<path fill="#445462" d="M22.795,37.071h-2.966c-0.614,0-1.112-0.499-1.112-1.112c0-0.614,0.498-1.112,1.112-1.112h2.966
			c0.614,0,1.112,0.498,1.112,1.112C23.907,36.572,23.409,37.071,22.795,37.071z"/>
	</g>
	<g>
		<path fill="#445462" d="M26.286,47.072c-1.368,0-2.755-0.504-4.012-1.457c-0.489-0.371-0.585-1.068-0.215-1.559
			c0.371-0.49,1.07-0.584,1.559-0.217c1.759,1.334,3.574,1.334,5.336,0c0.489-0.369,1.187-0.273,1.559,0.217
			c0.371,0.486,0.274,1.188-0.215,1.559C29.04,46.568,27.652,47.072,26.286,47.072z"/>
	</g>
	<g>
		<path fill="#445462" d="M26.458,80c-4.975,0-9.708-0.881-14.072-2.616c-4.559-1.812-8.713-4.332-12.015-7.286
			c-0.255-0.227-0.39-0.557-0.369-0.896c0.479-7.752,4.927-16.562,15.974-18.034c0.605-0.078,1.168,0.348,1.249,0.955
			c0.081,0.609-0.347,1.17-0.955,1.25C4.499,54.941,2.577,65.55,2.265,68.803c3.042,2.627,6.812,4.872,10.943,6.516
			c4.101,1.635,8.56,2.457,13.25,2.457c0.015,0,0.028,0,0.043,0c5.338-0.006,10.395-1.084,15.029-3.207
			c3.354-1.534,6.48-3.522,9.078-5.771c-0.527-6.8-3.27-14.767-13.06-15.419c-0.613-0.041-1.076-0.57-1.036-1.184
			c0.042-0.614,0.58-1.068,1.185-1.037c12.278,0.82,14.774,11.656,15.167,18.042c0.021,0.341-0.11,0.671-0.364,0.897
			c-2.838,2.533-6.312,4.778-10.039,6.488c-4.928,2.26-10.295,3.404-15.954,3.41C26.489,80,26.473,80,26.458,80z"/>
	</g>
	<g>
		<path fill="#445462" d="M30.208,79.331c-0.225,0-0.451-0.067-0.647-0.209c-0.499-0.356-0.613-1.054-0.255-1.552l7.161-9.982
			l-0.928-3.984c-0.115-0.494,0.119-1.004,0.568-1.234l2.812-1.471l-2.801-8.308c-0.196-0.582,0.116-1.214,0.698-1.409
			c0.586-0.189,1.213,0.117,1.41,0.698l3.104,9.21c0.174,0.518-0.055,1.088-0.54,1.342l-2.89,1.508l0.846,3.641
			c0.073,0.312,0.008,0.641-0.18,0.896l-7.455,10.395C30.896,79.17,30.555,79.331,30.208,79.331z"/>
	</g>
	<g>
		<path fill="#445462" d="M22.054,79.331c-0.351,0-0.696-0.167-0.912-0.478L13.89,68.463c-0.181-0.258-0.243-0.58-0.171-0.887
			l0.846-3.637l-2.89-1.51c-0.507-0.268-0.731-0.869-0.518-1.4l3.699-9.209c0.229-0.572,0.878-0.85,1.446-0.617
			c0.57,0.229,0.847,0.877,0.617,1.445l-3.323,8.272l2.762,1.438c0.449,0.233,0.684,0.744,0.568,1.238l-0.93,3.993l6.969,9.984
			c0.351,0.504,0.228,1.194-0.276,1.549C22.496,79.266,22.274,79.331,22.054,79.331z"/>
	</g>
	<g>
		<path fill="#445462" d="M38.071,35.111c-0.019,0-0.036,0-0.055-0.001c-0.555-0.026-1.005-0.459-1.054-1.012
			c-0.128-0.744-2.059-4.32-3.071-6.044c-5.9,2.901-10.709,2.828-14.302-0.217c-0.488-0.415-0.931-0.883-1.326-1.405
			c-0.704,1.795-1.764,4.826-2.669,7.611c-0.151,0.468-0.572,0.779-1.09,0.767c-0.492-0.014-0.918-0.352-1.043-0.828
			c-0.359-1.366-2.146-8.266-1.994-9.998c0.052-2.011,1.243-4.494,2.893-5.974c1.09-0.978,2.332-1.509,3.625-1.557
			c5.128-6.198,13.367-3.813,13.723-3.707c0.016,0.005,0.031,0.009,0.047,0.015c8.982,3.131,8.739,12.19,8.736,12.281
			c-0.108,2.617-1.277,8.896-1.327,9.161C39.064,34.732,38.604,35.111,38.071,35.111z M34.297,25.484
			c0.353,0,0.697,0.168,0.912,0.475c0.171,0.245,1.362,2.242,2.396,4.216c0.304-1.873,0.614-4.015,0.664-5.221
			c0.01-0.299,0.157-7.495-7.22-10.083c-0.53-0.152-7.564-2.049-11.644,3.373c-0.229,0.303-0.606,0.465-0.979,0.439
			c-0.909-0.071-1.771,0.256-2.58,0.983c-1.358,1.217-2.126,3.199-2.16,4.446c-0.059,0.695,0.427,3.112,1.009,5.605
			c1.058-3.057,2.126-5.839,2.686-6.395c0.258-0.255,0.624-0.368,0.979-0.306c0.357,0.063,0.661,0.297,0.812,0.627
			c0.468,1.008,1.092,1.848,1.855,2.495c3.014,2.554,7.303,2.379,12.746-0.523C33.94,25.526,34.119,25.484,34.297,25.484z"/>
	</g>
	<g>
		<path fill="#FF3A65" d="M63.777,28.676c-0.312,0-0.609-0.13-0.819-0.361l-7.985-8.71l-7.035,5.374
			c-0.484,0.373-1.187,0.28-1.561-0.209c-0.372-0.487-0.277-1.186,0.21-1.559l7.845-5.991c0.457-0.347,1.106-0.291,1.494,0.133
			l7.812,8.523l4.308-5.138c0.396-0.469,1.097-0.532,1.567-0.138c0.471,0.396,0.531,1.096,0.138,1.567l-5.121,6.111
			c-0.206,0.245-0.508,0.39-0.828,0.397C63.794,28.676,63.785,28.676,63.777,28.676z"/>
	</g>
	<g>
		<path fill="#445462" d="M77.822,28.113c-0.512,0-0.971-0.353-1.086-0.87l-0.293-1.318l-1.109,0.814
			c-0.495,0.362-1.191,0.256-1.555-0.239c-0.364-0.495-0.256-1.191,0.238-1.555l2.481-1.822c0.306-0.222,0.694-0.276,1.049-0.143
			c0.354,0.132,0.613,0.433,0.694,0.799l0.66,2.981c0.135,0.6-0.243,1.193-0.846,1.327C77.982,28.104,77.9,28.113,77.822,28.113z"/>
	</g>
	<g>
		<path fill="#445462" d="M42.651,42.887c-0.432,0-0.842-0.252-1.023-0.673c-0.241-0.563,0.02-1.219,0.584-1.461l6.767-2.903
			l4.067-9.788c0.166-0.399,0.55-0.667,0.983-0.684c0.426-0.017,0.837,0.219,1.033,0.605l4.811,9.42l3.587-4.481
			c0.304-0.381,0.817-0.517,1.271-0.343l5.957,2.316l5.567-10.113c0.297-0.54,0.976-0.733,1.511-0.439
			c0.539,0.297,0.734,0.973,0.438,1.512l-6.037,10.966c-0.271,0.488-0.856,0.7-1.378,0.5l-6.104-2.374l-4.151,5.189
			c-0.235,0.295-0.601,0.445-0.979,0.412c-0.375-0.038-0.707-0.264-0.879-0.6l-4.5-8.813l-3.318,7.983
			c-0.106,0.267-0.318,0.48-0.588,0.594l-7.18,3.083C42.946,42.857,42.798,42.887,42.651,42.887z"/>
	</g>
	<rect x="66.909" y="40.777" fill="#445462" width="4.448" height="8.896"/>
	<rect x="58.753" y="43.001" fill="#445462" width="4.449" height="6.673"/>
	<rect x="50.598" y="45.967" fill="#445462" width="4.448" height="3.707"/>
	<g>
		<path fill="#445462" d="M87.07,6.673H26.728c-1.555,0-2.82-1.212-2.82-2.702v-1.27c0-1.489,1.266-2.701,2.82-2.701h60.344
			c1.556,0,2.82,1.212,2.82,2.701v1.27C89.893,5.46,88.627,6.673,87.07,6.673z M26.728,2.224c-0.323,0-0.597,0.219-0.597,0.477v1.27
			c0,0.259,0.273,0.478,0.597,0.478h60.344c0.324,0,0.597-0.218,0.597-0.478v-1.27c0-0.258-0.272-0.477-0.597-0.477H26.728z"/>
	</g>
	<g>
		<path fill="#445462" d="M25.761,78.59c-0.447,0-0.87-0.271-1.039-0.716l-9.639-25.208c-0.22-0.573,0.068-1.217,0.642-1.436
			c0.574-0.223,1.217,0.063,1.437,0.641L26.8,77.079c0.219,0.575-0.068,1.217-0.642,1.437C26.027,78.566,25.893,78.59,25.761,78.59z
			"/>
	</g>
	<g>
		<path fill="#445462" d="M26.501,78.59c-0.141,0-0.283-0.027-0.423-0.084c-0.567-0.234-0.838-0.884-0.604-1.453l10.38-25.207
			c0.233-0.568,0.879-0.84,1.452-0.604c0.567,0.232,0.838,0.884,0.604,1.451L27.53,77.9C27.354,78.33,26.938,78.59,26.501,78.59z"/>
	</g>
	<g>
		<path fill="#445462" d="M28.726,10.38c-0.613,0-1.111-0.498-1.111-1.112V5.561c0-0.614,0.498-1.112,1.111-1.112
			c0.614,0,1.112,0.499,1.112,1.112v3.707C29.838,9.882,29.34,10.38,28.726,10.38z"/>
	</g>
</g>
</svg>
