<?xml version="1.0" encoding="utf-8"?>
<!-- Generator: Adobe Illustrator 15.0.0, SVG Export Plug-In . SVG Version: 6.00 Build 0)  -->
<!DOCTYPE svg PUBLIC "-//W3C//DTD SVG 1.1//EN" "http://www.w3.org/Graphics/SVG/1.1/DTD/svg11.dtd">
<svg version="1.1" id="Layer_1" xmlns="http://www.w3.org/2000/svg" xmlns:xlink="http://www.w3.org/1999/xlink" x="0px" y="0px"
	 width="120px" height="35px" viewBox="17.5 5 120 35" enable-background="new 17.5 5 120 35" xml:space="preserve">
<g>
	<path fill="#4D4D4D" d="M68.413,13.132c1.111,0,2.057,0.162,2.837,0.485c0.779,0.323,1.413,0.751,1.903,1.282
		c0.489,0.531,0.847,1.137,1.07,1.816c0.224,0.681,0.336,1.387,0.336,2.116c0,0.714-0.112,1.415-0.336,2.103
		c-0.223,0.689-0.581,1.298-1.07,1.83s-1.124,0.958-1.903,1.281c-0.78,0.322-1.727,0.486-2.837,0.486h-4.107v6.368h-3.907V13.132
		H68.413z M67.343,21.494c0.448,0,0.879-0.032,1.294-0.1c0.415-0.065,0.78-0.194,1.095-0.386c0.315-0.19,0.568-0.46,0.759-0.809
		c0.19-0.348,0.286-0.806,0.286-1.369c0-0.564-0.096-1.02-0.286-1.369c-0.191-0.348-0.444-0.618-0.759-0.809
		c-0.315-0.191-0.681-0.321-1.095-0.386c-0.414-0.065-0.846-0.099-1.294-0.099h-3.037v5.326H67.343z"/>
	<path fill="#4D4D4D" d="M79.363,18.034v2.39h0.048c0.167-0.398,0.394-0.766,0.672-1.107c0.282-0.339,0.603-0.63,0.971-0.871
		c0.368-0.24,0.757-0.427,1.169-0.56c0.415-0.133,0.848-0.199,1.295-0.199c0.232,0,0.49,0.042,0.771,0.125v3.285
		c-0.168-0.034-0.367-0.062-0.6-0.087c-0.233-0.024-0.453-0.037-0.671-0.037c-0.647,0-1.196,0.108-1.642,0.323
		c-0.446,0.215-0.809,0.51-1.084,0.884c-0.273,0.374-0.47,0.809-0.584,1.308c-0.115,0.499-0.177,1.035-0.177,1.617v5.799h-3.533
		V18.034H79.363z"/>
	<path fill="#4D4D4D" d="M84.69,21.681c0.314-0.837,0.761-1.551,1.343-2.141c0.582-0.589,1.28-1.045,2.091-1.369
		c0.812-0.323,1.728-0.485,2.739-0.485c1.014,0,1.929,0.162,2.75,0.485c0.822,0.324,1.521,0.78,2.104,1.369
		c0.58,0.589,1.027,1.303,1.345,2.141c0.313,0.837,0.472,1.77,0.472,2.799s-0.158,1.959-0.472,2.787
		c-0.315,0.83-0.763,1.539-1.345,2.129c-0.582,0.589-1.281,1.041-2.104,1.357c-0.821,0.314-1.736,0.47-2.75,0.47
		c-1.012,0-1.926-0.155-2.739-0.47c-0.813-0.316-1.509-0.769-2.091-1.357c-0.58-0.59-1.027-1.299-1.343-2.129
		c-0.315-0.828-0.474-1.758-0.474-2.787C84.217,23.452,84.375,22.519,84.69,21.681z M87.9,25.986c0.1,0.488,0.271,0.927,0.51,1.316
		c0.24,0.393,0.561,0.703,0.957,0.936c0.398,0.232,0.896,0.347,1.494,0.347s1.1-0.114,1.508-0.347
		c0.404-0.232,0.729-0.543,0.971-0.936c0.238-0.39,0.41-0.828,0.509-1.316s0.149-0.991,0.149-1.508c0-0.516-0.051-1.02-0.149-1.519
		c-0.099-0.497-0.271-0.937-0.509-1.318c-0.242-0.381-0.566-0.694-0.971-0.934c-0.408-0.24-0.91-0.361-1.508-0.361
		s-1.095,0.121-1.494,0.361c-0.398,0.242-0.717,0.552-0.957,0.934S88,22.464,87.9,22.96c-0.099,0.501-0.148,1.005-0.148,1.519
		C87.752,24.994,87.802,25.498,87.9,25.986z"/>
	<path fill="#4D4D4D" d="M105.098,20.698H98.9v-2.664h10.852v2.664l-6.693,7.541h7.167v2.664H98.404v-2.664L105.098,20.698z"/>
	<path fill="#4D4D4D" d="M111.596,16.044v-2.912h3.533v2.912H111.596z M115.129,18.034v12.868h-3.533V18.034H115.129z"/>
	<path fill="#4D4D4D" d="M120.729,18.034v1.743h0.051c0.464-0.664,1.023-1.178,1.68-1.543c0.655-0.365,1.405-0.548,2.251-0.548
		c0.813,0,1.557,0.158,2.228,0.473c0.672,0.315,1.184,0.871,1.531,1.667c0.383-0.564,0.9-1.061,1.556-1.493
		c0.655-0.431,1.432-0.647,2.327-0.647c0.681,0,1.312,0.083,1.892,0.25c0.581,0.165,1.079,0.431,1.493,0.796
		c0.415,0.365,0.738,0.842,0.971,1.432c0.232,0.589,0.348,1.298,0.348,2.127v8.611h-3.533v-7.293c0-0.431-0.016-0.837-0.049-1.22
		c-0.033-0.38-0.125-0.711-0.274-0.994c-0.149-0.281-0.37-0.505-0.661-0.672c-0.289-0.166-0.684-0.249-1.184-0.249
		c-0.498,0-0.898,0.096-1.206,0.286c-0.308,0.191-0.548,0.439-0.722,0.747c-0.178,0.308-0.293,0.655-0.349,1.046
		c-0.059,0.39-0.088,0.783-0.088,1.182v7.168h-3.534v-7.218c0-0.38-0.008-0.759-0.021-1.132c-0.017-0.373-0.088-0.718-0.211-1.033
		c-0.125-0.314-0.334-0.567-0.623-0.758c-0.293-0.191-0.719-0.287-1.282-0.287c-0.166,0-0.386,0.038-0.659,0.112
		c-0.275,0.074-0.539,0.216-0.797,0.423c-0.257,0.208-0.475,0.505-0.658,0.895c-0.186,0.39-0.275,0.901-0.275,1.532v7.468h-3.535
		v-12.87H120.729z"/>
</g>
<g>
	<g>
		<circle fill="#FF3A65" cx="35" cy="22.5" r="17.5"/>
	</g>
	<g>
		<g>
			<line fill="none" x1="27.485" y1="19.993" x2="32.384" y2="15.095"/>
			<path fill="#FFFFFF" d="M27.485,22.171c-0.558,0-1.116-0.212-1.541-0.638c-0.851-0.851-0.851-2.23,0-3.081l4.897-4.897
				c0.851-0.851,2.23-0.851,3.081,0c0.851,0.851,0.851,2.23,0,3.081l-4.898,4.897C28.6,21.958,28.043,22.171,27.485,22.171z"/>
		</g>
		<g>
			<line fill="none" x1="28.606" y1="29.217" x2="41.607" y2="16.216"/>
			<path fill="#FFFFFF" d="M28.606,31.396c-0.558,0-1.115-0.211-1.541-0.637c-0.851-0.854-0.851-2.23,0-3.082l13.001-13.002
				c0.851-0.851,2.229-0.851,3.08,0c0.851,0.851,0.851,2.23,0,3.081l-13,13C29.721,31.183,29.164,31.396,28.606,31.396z"/>
		</g>
		<g>
			<line fill="none" x1="37.83" y1="30.338" x2="42.728" y2="25.439"/>
			<path fill="#FFFFFF" d="M37.83,32.516c-0.558,0-1.115-0.213-1.54-0.639c-0.851-0.85-0.851-2.23,0-3.08l4.897-4.897
				c0.851-0.851,2.229-0.851,3.08,0c0.852,0.851,0.852,2.229,0,3.081l-4.897,4.896C38.945,32.303,38.387,32.516,37.83,32.516z"/>
		</g>
	</g>
</g>
</svg>
