<?xml version="1.0" encoding="utf-8"?>
<!-- Generator: Adobe Illustrator 15.0.0, SVG Export Plug-In . SVG Version: 6.00 Build 0)  -->
<!DOCTYPE svg PUBLIC "-//W3C//DTD SVG 1.1//EN" "http://www.w3.org/Graphics/SVG/1.1/DTD/svg11.dtd">
<svg version="1.1" id="Layer_1" xmlns="http://www.w3.org/2000/svg" xmlns:xlink="http://www.w3.org/1999/xlink" x="0px" y="0px"
	 width="600px" height="600px" viewBox="0 0 600 600" enable-background="new 0 0 600 600" xml:space="preserve">
<path opacity="0.05" fill-rule="evenodd" clip-rule="evenodd" d="M261.804,226.477l-1.729-1.054l-33.656,3.31l13.411,33.789
	L261.804,226.477L261.804,226.477z M202.013,188.526l55.973,34.123l-32.705,3.216l-2.06-5.191h0
	c-0.257-0.675-0.788-1.292-1.403-1.667c-0.628-0.383-1.38-0.547-2.111-0.482l-0.013-0.001l-5.558,0.546L202.013,188.526
	L202.013,188.526z M211.065,219.372l-12.476-31.433l-1.729-1.054l-21.974,36.044L211.065,219.372L211.065,219.372z M172.954,226.1
	l47.034-4.627c0.201-0.014,0.406,0.099,0.476,0.292l17.435,43.928l-0.206,0.336l-64.944-39.592L172.954,226.1L172.954,226.1z
	 M197.392,180.307l48.508-4.771l0.013,0.001c0.731-0.064,1.483,0.099,2.111,0.482c0.615,0.375,1.145,0.993,1.403,1.667l0,0
	l17.981,45.304c-9.575,15.707-19.15,31.414-28.726,47.121l-70.017-42.685C178.241,211.72,187.816,196.014,197.392,180.307
	L197.392,180.307z M264.018,222.847l0.086-0.142l-17.447-43.962c-0.024-0.066-0.088-0.13-0.159-0.177
	c-0.097-0.063-0.189-0.088-0.305-0.08l-47.034,4.627l-0.086,0.141L264.018,222.847z"/>
<path opacity="0.05" fill-rule="evenodd" clip-rule="evenodd" d="M497.571,80.256l-1.971-0.464l-30.955,13.621l23.262,27.937
	L497.571,80.256L497.571,80.256z M428.938,62.799l63.813,15.007l-30.08,13.235l-3.573-4.292l0,0
	c-0.454-0.562-1.15-0.983-1.853-1.148c-0.717-0.168-1.481-0.091-2.156,0.199l-0.012,0.003l-5.111,2.249L428.938,62.799
	L428.938,62.799z M447.141,89.295l-21.64-25.988l-1.971-0.464l-9.664,41.094L447.141,89.295L447.141,89.295z M413.017,107.552
	l43.257-19.037c0.187-0.076,0.417-0.033,0.543,0.129l30.241,36.32l-0.091,0.384l-74.041-17.412L413.017,107.552L413.017,107.552z
	 M421.987,56.427l44.614-19.631l0.013-0.003c0.676-0.289,1.439-0.367,2.156-0.199c0.701,0.165,1.398,0.587,1.853,1.148h0.001
	l31.188,37.458c-4.211,17.907-8.422,35.814-12.633,53.721l-79.824-18.772C413.565,92.24,417.776,74.333,421.987,56.427
	L421.987,56.427z M498.544,76.116l0.038-0.161l-30.263-36.349c-0.045-0.055-0.125-0.096-0.206-0.118
	c-0.111-0.03-0.208-0.025-0.313,0.018l-43.258,19.037l-0.039,0.161L498.544,76.116z"/>
<path opacity="0.05" fill-rule="evenodd" clip-rule="evenodd" d="M111.155,344.47l-1.793,0.939l-14.49,30.557l35.871,5.898
	L111.155,344.47L111.155,344.47z M47.837,376.188l58.07-30.416l-14.081,29.693l-5.511-0.907l0,0
	c-0.711-0.126-1.513,0.011-2.152,0.345c-0.651,0.342-1.179,0.9-1.5,1.562l-0.007,0.011l-2.393,5.045L47.837,376.188L47.837,376.188z
	 M78.942,384.31l-33.37-5.488l-1.794,0.94l19.587,37.396L78.942,384.31L78.942,384.31z M65.088,420.446l20.249-42.705
	c0.091-0.179,0.293-0.297,0.495-0.256l46.635,7.67l0.183,0.349l-67.378,35.292L65.088,420.446L65.088,420.446z M38.412,375.919
	l20.885-44.041l0.007-0.011c0.322-0.661,0.849-1.22,1.5-1.562c0.638-0.335,1.441-0.471,2.151-0.344l0-0.002l48.096,7.911
	c8.535,16.296,17.07,32.591,25.606,48.886l-72.641,38.049C55.482,408.51,46.947,392.214,38.412,375.919L38.412,375.919z
	 M109.183,340.703l-67.377,35.292l-0.077-0.146l20.248-42.703c0.052-0.104,0.122-0.17,0.226-0.221
	c0.076-0.036,0.163-0.059,0.232-0.045l46.671,7.677L109.183,340.703z"/>
<path opacity="0.05" fill-rule="evenodd" clip-rule="evenodd" d="M544.655,440.011l-1.793,0.94l-14.49,30.556l35.871,5.9
	L544.655,440.011L544.655,440.011z M481.338,471.729l58.069-30.416l-14.08,29.693l-5.51-0.906h-0.001
	c-0.711-0.127-1.513,0.01-2.151,0.344c-0.652,0.342-1.18,0.901-1.5,1.562l-0.008,0.011l-2.393,5.045L481.338,471.729
	L481.338,471.729z M512.442,479.851l-33.369-5.487l-1.795,0.94l19.588,37.395L512.442,479.851L512.442,479.851z M498.589,515.987
	l20.248-42.703c0.092-0.18,0.293-0.298,0.494-0.258l46.635,7.67l0.184,0.35l-67.378,35.291L498.589,515.987L498.589,515.987z
	 M471.913,471.461l20.885-44.042l0.007-0.01c0.321-0.66,0.849-1.221,1.5-1.562c0.639-0.334,1.44-0.471,2.151-0.344h0.001
	l48.096,7.91c8.536,16.295,17.071,32.59,25.606,48.886l-72.641,38.048C488.983,504.052,480.448,487.757,471.913,471.461
	L471.913,471.461z M542.683,436.245l-67.377,35.291l-0.076-0.146l20.248-42.703c0.052-0.104,0.121-0.17,0.225-0.221
	c0.076-0.035,0.164-0.058,0.233-0.045l46.671,7.678L542.683,436.245z"/>
<path opacity="0.05" fill-rule="evenodd" clip-rule="evenodd" d="M107.817,48.606h-1.628l-21.73,16.368l23.361,17.591
	L107.817,48.606L107.817,48.606z M50.857,47.581l52.734-0.005L82.475,63.481l-3.588-2.703l0,0c-0.459-0.355-1.082-0.558-1.662-0.558
	c-0.592,0-1.177,0.202-1.652,0.553l-0.009,0.004l-3.588,2.703L50.857,47.581L50.857,47.581z M69.993,64.976L48.26,48.612h-1.629
	l0.003,33.959L69.993,64.976L69.993,64.976z M46.634,85.558L77,62.682c0.132-0.094,0.321-0.103,0.449,0.001l30.371,22.869v0.317
	l-61.187,0.005V85.558L46.634,85.558z M44.241,43.871L75.56,20.28l0.01-0.005c0.475-0.351,1.06-0.553,1.652-0.553
	c0.58,0,1.202,0.202,1.662,0.558h0l31.323,23.586c0.001,14.798,0.002,29.596,0.004,44.394l-65.965,0.006
	C44.243,73.467,44.242,58.669,44.241,43.871L44.241,43.871z M107.817,45.186v-0.133L77.423,22.165
	c-0.045-0.036-0.115-0.052-0.183-0.055c-0.093-0.003-0.167,0.018-0.243,0.072L46.63,45.058v0.133L107.817,45.186z"/>
<path opacity="0.05" fill-rule="evenodd" clip-rule="evenodd" d="M383.492,472.142l-1.333-0.936l-27.189,0.914l9.018,27.82
	L383.492,472.142L383.492,472.142z M337.458,438.581l8.151,25.147l4.489-0.151l0.011,0.002c0.591-0.016,1.185,0.156,1.67,0.496
	c0.475,0.333,0.868,0.855,1.04,1.41l0,0l1.385,4.274l26.421-0.89L337.458,438.581L337.458,438.581z M343.128,463.812l-29.228,0.984
	l19.507-27.799l1.333,0.936L343.128,463.812L343.128,463.812z M312.186,467.24l37.997-1.28c0.162,0,0.32,0.1,0.366,0.26
	l11.722,36.165l-0.182,0.26L312.003,467.5L312.186,467.24L312.186,467.24z M334.173,431.743l39.189-1.318l0.01,0.002
	c0.591-0.014,1.186,0.156,1.67,0.496c0.475,0.332,0.867,0.855,1.039,1.411l0,0l12.09,37.3c-8.499,12.113-16.998,24.227-25.498,36.34
	l-53.999-37.891C317.175,455.97,325.674,443.856,334.173,431.743L334.173,431.743z M385.457,469.342l-50.086-35.146l0.077-0.108
	l37.996-1.28c0.094,0,0.166,0.025,0.24,0.08c0.055,0.041,0.103,0.096,0.119,0.15l11.73,36.195L385.457,469.342z"/>
<path opacity="0.05" fill-rule="evenodd" clip-rule="evenodd" d="M438.396,195.592v0.128l29.363,21.69
	c0.07,0.049,0.131,0.067,0.217,0.066c0.069,0,0.137-0.008,0.193-0.053l28.977-22.25l-0.002-0.128L438.396,195.592L438.396,195.592z
	 M497.483,231.509l0.003,0.304l-58.749,0.547l-0.003-0.305l22.063-16.941l5.607,4.14c0.459,0.333,1.023,0.521,1.592,0.516
	c0.557-0.005,1.153-0.205,1.59-0.55l5.521-4.238L497.483,231.509L497.483,231.509z M476.999,213.53l20.173-15.49l0.284,30.601
	L476.999,213.53L476.999,213.53z M438.708,229.188l-0.285-30.601l20.458,15.111L438.708,229.188L438.708,229.188z M436.079,193.319
	l63.338-0.59c0.129,13.787,0.258,27.572,0.385,41.358l-63.338,0.59C436.336,220.891,436.208,207.105,436.079,193.319z"/>
<path opacity="0.05" fill-rule="evenodd" clip-rule="evenodd" d="M249.07,460.241l-0.1,0.08l0.9,36.494
	c0.004,0.086,0.027,0.145,0.08,0.211c0.043,0.055,0.091,0.104,0.161,0.119l35.352,9.219l0.101-0.08L249.07,460.241L249.07,460.241z
	 M256.985,528.936l-0.239,0.188l-36.493-46.043l0.239-0.189l26.917,7.02l0.174,6.968c0.019,0.566,0.217,1.128,0.569,1.573
	c0.346,0.436,0.87,0.784,1.411,0.918l6.735,1.756L256.985,528.936L256.985,528.936z M258.605,501.728l24.611,6.418l-23.983,19.008
	L258.605,501.728L258.605,501.728z M222.74,481.11l24.611,6.418l-0.628-25.426L222.74,481.11L222.74,481.11z M249.443,457.018
	l39.344,49.64c-10.804,8.564-21.609,17.127-32.414,25.691l-39.344-49.641C227.834,474.145,238.639,465.581,249.443,457.018z"/>
<path opacity="0.05" fill-rule="evenodd" clip-rule="evenodd" d="M524.757,286.458l-1.193,1.107l-4.802,26.777l29.091-2.988
	L524.757,286.458L524.757,286.458z M482.298,324.438l38.66-35.862l-4.666,26.021l-4.469,0.459l0,0
	c-0.578,0.052-1.172,0.327-1.598,0.721c-0.434,0.403-0.726,0.949-0.835,1.529l-0.003,0.011l-0.793,4.421L482.298,324.438
	L482.298,324.438z M508.156,324.181l-27.062,2.781l-1.195,1.107l23.096,24.896L508.156,324.181L508.156,324.181z M505.026,355.155
	l6.709-37.422c0.033-0.158,0.164-0.292,0.329-0.305l37.819-3.885l0.216,0.232l-44.858,41.611L505.026,355.155L505.026,355.155z
	 M474.924,326.219l6.92-38.595l0.005-0.01c0.109-0.581,0.4-1.126,0.834-1.529c0.426-0.395,1.02-0.67,1.598-0.721v0l39.006-4.007
	c10.062,10.849,20.127,21.699,30.19,32.547l-48.362,44.86C495.051,347.917,484.987,337.067,474.924,326.219L474.924,326.219z
	 M522.431,283.95l-44.857,41.612l-0.09-0.098l6.709-37.422c0.018-0.091,0.059-0.157,0.129-0.218c0.051-0.044,0.113-0.08,0.17-0.084
	l37.85-3.887L522.431,283.95z"/>
<path opacity="0.05" fill-rule="evenodd" clip-rule="evenodd" d="M77.452,549.616l-0.834-0.812l-19.294-2.445l3.201,20.66
	L77.452,549.616L77.452,549.616z M48.777,520.694L75.8,546.981l-18.749-2.377l-0.492-3.174h0c-0.058-0.41-0.276-0.824-0.573-1.113
	c-0.303-0.296-0.704-0.484-1.123-0.541l-0.007-0.002l-3.186-0.404L48.777,520.694L48.777,520.694z M49.91,539.147l-2.978-19.219
	l-0.835-0.812L29.17,536.519L49.91,539.147L49.91,539.147z M27.681,538.05l26.963,3.416c0.115,0.018,0.215,0.107,0.229,0.225
	l4.162,26.857l-0.158,0.164l-31.355-30.5L27.681,538.05L27.681,538.05z M47.236,515.496l27.809,3.524l0.007,0.002
	c0.418,0.058,0.818,0.245,1.122,0.541c0.297,0.288,0.516,0.703,0.574,1.113l0,0l4.292,27.701
	c-7.376,7.582-14.752,15.166-22.128,22.748l-33.804-32.881C32.483,530.662,39.86,523.079,47.236,515.496L47.236,515.496z
	 M79.157,547.862l-31.355-30.498l0.066-0.068l26.963,3.416c0.066,0.01,0.115,0.036,0.161,0.084c0.034,0.035,0.061,0.078,0.066,0.119
	l4.165,26.879L79.157,547.862z"/>
<path opacity="0.05" fill-rule="evenodd" clip-rule="evenodd" d="M271.364,273.895l0,0.1l22.846,16.881
	c0.055,0.038,0.102,0.052,0.168,0.052c0.054,0,0.107-0.007,0.15-0.042l22.551-17.311l-0.002-0.1L271.364,273.895L271.364,273.895z
	 M317.339,301.851l0.002,0.236l-45.714,0.42l-0.002-0.237l17.171-13.181l4.363,3.222c0.357,0.259,0.796,0.406,1.238,0.402
	c0.433-0.004,0.897-0.16,1.238-0.428l4.296-3.297L317.339,301.851L317.339,301.851z M301.401,287.858l15.699-12.051l0.219,23.812
	L301.401,287.858L301.401,287.858z M271.604,300.038l-0.218-23.812l15.918,11.761L271.604,300.038L271.604,300.038z
	 M269.562,272.126l49.287-0.452c0.098,10.728,0.196,21.455,0.295,32.182l-49.287,0.452
	C269.759,293.581,269.661,282.854,269.562,272.126z"/>
</svg>
