<?xml version="1.0" encoding="utf-8"?>
<!-- Generator: Adobe Illustrator 15.0.0, SVG Export Plug-In . SVG Version: 6.00 Build 0)  -->
<!DOCTYPE svg PUBLIC "-//W3C//DTD SVG 1.1//EN" "http://www.w3.org/Graphics/SVG/1.1/DTD/svg11.dtd">
<svg version="1.1" id="Layer_1" xmlns="http://www.w3.org/2000/svg" xmlns:xlink="http://www.w3.org/1999/xlink" x="0px" y="0px"
	 width="360px" height="380px" viewBox="0 0 360 380" enable-background="new 0 0 360 380" xml:space="preserve">
<g id="white_screen">
	<path fill="#445462" d="M350.065,379.333H8.559c-4.721,0-8.559-4.018-8.559-8.954V8.287c0-4.938,3.838-8.954,8.559-8.954h341.507
		c4.718,0,8.556,4.016,8.556,8.954v362.092C358.621,375.316,354.783,379.333,350.065,379.333z M8.559,3.302
		c-2.531,0-4.59,2.236-4.59,4.985v362.092c0,2.748,2.059,4.984,4.59,4.984h341.507c2.53,0,4.588-2.236,4.588-4.984V8.287
		c0-2.749-2.058-4.985-4.588-4.985H8.559z"/>
</g>
<g id="white_screen_1_">
	<path fill="#DAE3E8" d="M324.46,173.429H34.163V66.02H324.46V173.429z M38.131,169.46h282.36V69.989H38.131V169.46z"/>
</g>
<g id="buttons">
	<g>
		<circle fill="#445462" cx="21.332" cy="15.167" r="4.566"/>
	</g>
	<g>
		<circle fill="#445462" cx="36.147" cy="15.167" r="4.566"/>
	</g>
	<g>
		<circle fill="#445462" cx="50.963" cy="15.167" r="4.566"/>
	</g>
</g>
<g>
	<path fill="#DAE3E8" d="M85.106,241.993c-15.304,0-27.755-12.451-27.755-27.755s12.451-27.755,27.755-27.755
		c15.305,0,27.755,12.451,27.755,27.755S100.411,241.993,85.106,241.993z M85.106,190.452c-13.115,0-23.787,10.669-23.787,23.786
		c0,13.115,10.672,23.787,23.787,23.787c13.116,0,23.786-10.671,23.786-23.787C108.893,201.122,98.223,190.452,85.106,190.452z"/>
</g>
<g>
	<path fill="#DAE3E8" d="M179.312,241.993c-15.305,0-27.755-12.451-27.755-27.755s12.45-27.755,27.755-27.755
		c15.304,0,27.755,12.451,27.755,27.755S194.615,241.993,179.312,241.993z M179.312,190.452c-13.116,0-23.787,10.669-23.787,23.786
		c0,13.115,10.671,23.787,23.787,23.787c13.115,0,23.786-10.671,23.786-23.787C203.098,201.122,192.427,190.452,179.312,190.452z"/>
</g>
<g>
	<path fill="#DAE3E8" d="M273.516,241.993c-15.304,0-27.754-12.451-27.754-27.755s12.45-27.755,27.754-27.755
		c15.305,0,27.756,12.451,27.756,27.755S288.82,241.993,273.516,241.993z M273.516,190.452c-13.115,0-23.786,10.669-23.786,23.786
		c0,13.115,10.671,23.787,23.786,23.787c13.117,0,23.786-10.671,23.786-23.787C297.302,201.122,286.633,190.452,273.516,190.452z"/>
</g>
<g>
	<rect x="58.105" y="249.145" fill="#DAE3E8" width="54.069" height="3.969"/>
</g>
<g>
	<rect x="58.105" y="257.887" fill="#DAE3E8" width="54.069" height="3.969"/>
</g>
<g>
	<rect x="68.688" y="266.629" fill="#DAE3E8" width="32.904" height="3.969"/>
</g>
<g>
	<rect x="152.276" y="249.145" fill="#DAE3E8" width="54.069" height="3.969"/>
</g>
<g>
	<rect x="152.276" y="257.887" fill="#DAE3E8" width="54.069" height="3.969"/>
</g>
<g>
	<rect x="162.859" y="266.629" fill="#DAE3E8" width="32.904" height="3.969"/>
</g>
<g>
	<rect x="246.447" y="249.145" fill="#DAE3E8" width="54.07" height="3.969"/>
</g>
<g>
	<rect x="246.447" y="257.887" fill="#DAE3E8" width="54.07" height="3.969"/>
</g>
<g>
	<rect x="257.031" y="266.629" fill="#DAE3E8" width="32.904" height="3.969"/>
</g>
<g>
	<g id="white_screen_79_">
		<path fill="#DAE3E8" d="M217.126,350.211h-64.52v-16.873h64.52V350.211z M156.576,346.242h56.581v-8.935h-56.581V346.242z"/>
	</g>
	<g>
		<path fill="#DAE3E8" d="M138.964,350.202H58.025v-62.666h80.938V350.202z M61.993,346.233h73.003v-54.728H61.993V346.233z"/>
	</g>
	<g>
		<path fill="#DAE3E8" d="M58.027,350.211v-11.174l29.247-20.214l16.13,12.891l35.56-25.119v43.608L58.027,350.211z M61.995,341.119
			v5.123l73.001-0.007v-31.978l-31.738,22.42l-16.156-12.911L61.995,341.119z"/>
	</g>
	<g>
		<rect x="152.276" y="287.685" fill="#DAE3E8" width="75.319" height="3.969"/>
	</g>
	<g>
		<rect x="152.276" y="298.957" fill="#DAE3E8" width="148.299" height="3.969"/>
	</g>
	<g>
		<rect x="152.276" y="310.229" fill="#DAE3E8" width="148.299" height="3.969"/>
	</g>
	<g>
		<rect x="152.276" y="321.501" fill="#DAE3E8" width="122.088" height="3.969"/>
	</g>
</g>
<g>
	<rect x="34.164" y="40.187" fill="#445462" width="19.187" height="3.969"/>
</g>
<g>
	<rect x="34.164" y="47.055" fill="#445462" width="19.187" height="3.969"/>
</g>
<g>
	<rect x="34.164" y="53.923" fill="#445462" width="19.187" height="3.969"/>
</g>
<g>
	<rect x="95.709" y="47.055" fill="#445462" width="30.239" height="3.969"/>
</g>
<g>
	<rect x="141.364" y="47.055" fill="#445462" width="30.239" height="3.969"/>
</g>
<g>
	<rect x="187.02" y="47.055" fill="#445462" width="30.237" height="3.969"/>
</g>
<g>
	<rect x="232.676" y="47.055" fill="#445462" width="30.237" height="3.969"/>
</g>
<g>
	<rect x="1.984" y="26.51" fill="#445462" width="354.653" height="3.968"/>
</g>
<g>
	<circle fill="#DAE3E8" cx="180.738" cy="119.931" r="25.957"/>
</g>
<g>
	<g>
		<line fill="none" x1="169.593" y1="116.211" x2="176.858" y2="108.947"/>
		<path fill="#FF3A65" d="M169.593,119.444c-0.826,0-1.655-0.314-2.284-0.946c-1.263-1.262-1.263-3.307,0-4.569l7.265-7.265
			c1.262-1.263,3.308-1.263,4.568,0c1.262,1.262,1.262,3.309,0,4.57l-7.267,7.264C171.246,119.13,170.421,119.444,169.593,119.444z"
			/>
	</g>
	<g>
		<line fill="none" x1="171.255" y1="129.894" x2="190.539" y2="110.61"/>
		<path fill="#FF3A65" d="M171.255,133.126c-0.828,0-1.655-0.314-2.284-0.945c-1.262-1.263-1.262-3.308,0-4.569l19.284-19.287
			c1.262-1.261,3.307-1.261,4.569,0c1.262,1.264,1.262,3.308,0,4.57l-19.285,19.284C172.909,132.81,172.082,133.126,171.255,133.126
			z"/>
	</g>
	<g>
		<line fill="none" x1="184.935" y1="131.556" x2="192.203" y2="124.292"/>
		<path fill="#FF3A65" d="M184.935,134.788c-0.824,0-1.65-0.315-2.281-0.947c-1.265-1.261-1.265-3.308,0-4.569l7.262-7.265
			c1.265-1.262,3.309-1.262,4.571,0c1.262,1.262,1.262,3.308,0,4.569l-7.265,7.265C186.59,134.472,185.764,134.788,184.935,134.788z
			"/>
	</g>
</g>
</svg>
