<?xml version="1.0" encoding="utf-8"?>
<!-- Generator: Adobe Illustrator 15.0.0, SVG Export Plug-In . SVG Version: 6.00 Build 0)  -->
<!DOCTYPE svg PUBLIC "-//W3C//DTD SVG 1.1//EN" "http://www.w3.org/Graphics/SVG/1.1/DTD/svg11.dtd">
<svg version="1.1" xmlns="http://www.w3.org/2000/svg" xmlns:xlink="http://www.w3.org/1999/xlink" x="0px" y="0px"
	 width="944.597px" height="315.269px" viewBox="0 0 944.597 315.269" enable-background="new 0 0 944.597 315.269"
	 xml:space="preserve">
<g id="background">
</g>
<g id="line">
	<g>
		<g>
			<polygon fill="#FF3A65" points="323.708,134.129 312.698,134.129 307.416,124.017 310.057,122.638 314.502,131.149 
				321.768,131.149 325.565,122.573 328.29,123.779 			"/>
		</g>
		<g>
			<polygon fill="#FF3A65" points="328.103,192.95 327.107,167.772 321.269,132.885 324.208,132.394 330.077,167.466 
				330.081,167.56 331.08,192.833 			"/>
		</g>
		<g>
			<polygon fill="#FF3A65" points="312.806,205.418 309.826,205.418 309.829,169.097 312.113,132.547 315.087,132.732 
				312.806,169.237 			"/>
		</g>
		<g>
			<rect x="303.145" y="52.628" fill="#445462" width="2.997" height="2.979"/>
		</g>
		<g>
			<rect x="331.384" y="52.756" fill="#445462" width="2.825" height="2.979"/>
		</g>
		<g>
			<path fill="#445462" d="M317.998,78.931c-1.114,0-2.263-0.132-3.435-0.397c-1.641-0.372-4.696-1.064-7.18-4.283l2.358-1.82
				c1.688,2.187,3.633,2.778,5.48,3.196c1.501,0.341,2.937,0.414,4.269,0.219l0.431,2.948
				C319.294,78.886,318.652,78.931,317.998,78.931z"/>
		</g>
		<g>
			<path fill="#445462" d="M338.22,54.472c-3.391-1.496-7.857-1.652-10.862-0.381l-1.161-2.744
				c3.761-1.591,9.076-1.431,13.226,0.399L338.22,54.472z"/>
		</g>
		<g>
			<path fill="#445462" d="M299.154,54.335l-1.139-2.752c4.19-1.735,9.508-1.773,13.23-0.095l-1.224,2.716
				C307.047,52.863,302.579,52.917,299.154,54.335z"/>
		</g>
		<g>
			<path fill="#445462" d="M325.766,69.2h-1.583c-1.139,0-2.501-0.012-3.9-0.025c-1.464-0.014-2.967-0.027-4.293-0.027v-2.979
				c1.333,0,2.846,0.014,4.32,0.027c0.782,0.007,1.552,0.015,2.279,0.019c-0.031-0.44-0.067-0.95-0.107-1.516
				c-0.279-3.971-0.746-10.617-0.967-14.646l-0.013-0.228l0.056-0.22c1.602-6.308,8.792-8.775,18.763-6.441l-0.678,2.901
				c-6.356-1.488-13.623-1.185-15.14,4.064c0.225,4.026,0.678,10.477,0.95,14.362c0.111,1.578,0.192,2.732,0.217,3.129L325.766,69.2
				z"/>
		</g>
		<g>
			<path fill="#445462" d="M311.648,46.452c-3.436-2.509-9.64-2.957-14.754-1.064l-1.034-2.794
				c6.081-2.25,13.295-1.652,17.546,1.453L311.648,46.452z"/>
		</g>
		<g>
			<path fill="#445462" d="M352.431,49.038l-2.618-1.422c0.088-0.163,8.787-16.643,0.302-33.939c-2.646-5.393-9.357-7.678-9.425-7.7
				l0.935-2.83c0.323,0.106,7.959,2.683,11.165,9.217C361.97,31.076,352.825,48.313,352.431,49.038z"/>
		</g>
		<g>
			<path fill="#445462" d="M281.512,50.554c-0.017-0.068-1.716-6.94-3.449-18.406c-1.331-8.809-0.713-14.563,1.891-17.59
				c1.364-1.586,3.221-2.39,5.517-2.39v2.979c-1.409,0-2.475,0.442-3.258,1.354c-1.359,1.579-2.671,5.499-1.205,15.203
				c1.71,11.311,3.378,18.063,3.395,18.13L281.512,50.554z"/>
		</g>
		<g>
			<path fill="#445462" d="M346.5,64.621c-0.065,0-0.102-0.003-0.106-0.003l0.193-2.973c0.148,0.005,4.226,0.06,5.297-6.997
				c0.213-1.403-0.14-2.982-0.857-3.84c-0.366-0.437-0.781-0.647-1.308-0.662l0.082-2.979c1.383,0.038,2.598,0.636,3.511,1.729
				c1.264,1.512,1.859,3.944,1.518,6.198C353.437,64.279,347.379,64.621,346.5,64.621z"/>
		</g>
		<g>
			<path fill="#445462" d="M289.139,66.545c-3.055-0.06-8.836-2.3-8.854-10.35c-0.009-4.059,4.141-7.001,7.871-7.104l0.083,2.979
				c-2.257,0.062-4.979,1.913-4.974,4.118c0.016,7.179,5.69,7.373,5.932,7.377L289.139,66.545z"/>
		</g>
		<g>
			<path fill="#445462" d="M318.126,30.947c-10.636,0-21.781-3.591-28.919-6.959l1.271-2.694c11.659,5.5,34.53,11.748,46.298,0.28
				l2.079,2.134C333.395,29.029,325.896,30.947,318.126,30.947z"/>
		</g>
		<g>
			<path fill="#445462" d="M339.334,12.121c-1.375,0-2.797-0.213-4.159-0.646l0.902-2.84c2.366,0.751,5.016,0.662,6.753-0.23
				l1.361,2.651C342.816,11.763,341.115,12.121,339.334,12.121z"/>
		</g>
		<g>
			<path fill="#445462" d="M286.537,49.071l-2.13-2.083c3.837-3.924,8.437-14.199,7.215-22.018l2.944-0.46
				C295.984,33.586,290.718,44.794,286.537,49.071z"/>
		</g>
		<g>
			<rect x="316.667" y="91.935" fill="#445462" width="2.755" height="2.979"/>
		</g>
		<g>
			
				<rect x="295.701" y="87.123" transform="matrix(0.999 0.0439 -0.0439 0.999 4.3763 -12.963)" fill="#445462" width="2.979" height="11.977"/>
		</g>
		<g>
			
				<rect x="330.232" y="92.513" transform="matrix(0.0464 0.9989 -0.9989 0.0464 414.0952 -245.7845)" fill="#445462" width="11.106" height="2.979"/>
		</g>
		<g>
			<path fill="#445462" d="M288.196,13.405l-2.882-0.754c0.138-0.538,3.666-13.149,29.025-12.635
				c5.597,0.115,16.719,0.786,24.417,2.167l-0.526,2.933c-7.529-1.351-18.449-2.008-23.953-2.121
				C291.48,2.522,288.226,13.296,288.196,13.405z"/>
		</g>
		<g>
			<path fill="#445462" d="M310.126,97.731c-0.705,0-1.385-0.221-1.948-0.639c-1.353-1.004-14.336-11.044-15.835-13.505
				c-0.716-1.174-3.413-16.147-5.549-28.501l2.937-0.508c1.689,9.774,4.571,25.744,5.199,27.525
				c1.153,1.664,11.292,9.826,15.023,12.596c0.055,0.04,0.141,0.059,0.223,0.049l6.751-0.805c0.458-0.053,0.922-0.053,1.38,0.001
				l6.75,0.804c0.084,0.01,0.17-0.009,0.223-0.05c3.738-2.773,13.906-10.96,15.029-12.604c0.66-1.731,4.19-18.301,5.128-24.499
				c0.114-0.777-0.633-4.549-1.403-7.586c-0.137-0.582-0.151-1.151-0.046-1.715l0.629-5.931
				c-2.175-10.594-9.522-13.963-9.597-13.996l1.208-2.724c0.364,0.161,8.941,4.093,11.356,16.362l0.043,0.221l-0.706,6.591
				c-0.033,0.161-0.031,0.323,0.007,0.483c0.403,1.59,1.719,6.995,1.455,8.738c-0.776,5.131-4.643,24.153-5.493,25.547
				c-1.498,2.461-14.482,12.501-15.834,13.505c-0.671,0.498-1.506,0.716-2.352,0.615l-6.75-0.805c-0.225-0.026-0.451-0.026-0.675,0
				l-6.751,0.805C310.395,97.724,310.26,97.731,310.126,97.731z"/>
		</g>
		<g>
			<g>
				<path fill="#445462" d="M299.544,14.179l-1.873-2.317c6.919-5.592,15.341-5.625,19.389-5.64c0.56-0.001,1.043-0.004,1.37-0.022
					l0.169,2.975c-0.405,0.023-0.9,0.024-1.527,0.028C313.364,9.215,305.649,9.245,299.544,14.179z"/>
			</g>
			<g>
				<path fill="#445462" d="M320.846,9.028L320.6,6.059c0.484-0.041,0.856-0.073,1.249-0.106l1.062-0.092l0.25,2.97l-1.054,0.09
					C321.711,8.955,321.335,8.987,320.846,9.028z"/>
			</g>
		</g>
		<g>
			
				<rect x="354.438" y="214.318" transform="matrix(0.8182 0.5749 -0.5749 0.8182 189.0699 -166.3186)" fill="#445462" width="6.178" height="2.98"/>
		</g>
		<g>
			
				<rect x="367.603" y="180.878" transform="matrix(0.999 0.0452 -0.0452 0.999 9.233 -16.4961)" fill="#445462" width="2.979" height="29.747"/>
		</g>
		<g>
			<path fill="#445462" d="M328.104,223.646l-0.395-2.953c13.654-1.824,20.685-2.996,28.824-4.354
				c4.375-0.729,8.897-1.483,14.893-2.413l0.527-0.082l9.235,5.462l-1.517,2.564l-8.317-4.919
				c-5.718,0.89-10.095,1.619-14.332,2.326C348.859,220.64,341.807,221.816,328.104,223.646z"/>
		</g>
		<g>
			<path fill="#445462" d="M369.477,259.644c-0.138,0-0.271-0.001-0.404-0.002c-17.689-0.258-54.984-10-67.557-14.018l0.907-2.839
				c12.449,3.98,49.319,13.624,66.693,13.877c8.952,0.11,32.056-4.602,37.414-5.727c0.437-9.56,3.125-76.213-5.236-102.314
				c-5.493-17.146-16.226-25.012-17.102-25.63l-26.163-13.767l-4.581-1.798l1.089-2.773l4.807,1.897l26.385,13.882l0.064,0.043
				c0.5,0.335,12.302,8.396,18.337,27.236c9.139,28.525,5.48,101.431,5.32,104.521l-0.059,1.139l-1.114,0.241
				C407.123,253.861,380.204,259.644,369.477,259.644z"/>
		</g>
		<g>
			<polygon fill="#445462" points="383.716,319.176 380.516,266.403 381.183,257.085 384.155,257.298 383.502,266.419 
				386.69,318.996 			"/>
		</g>
		<g>
			<path fill="#445462" d="M349.708,319.412c-1.719-20.829-2.843-63.333-2.854-63.76l2.979-0.078
				c0.011,0.427,1.132,42.847,2.845,63.594L349.708,319.412z"/>
		</g>
		<g>
			<path fill="#445462" d="M343.932,203.73l-2.979-0.01l0.12-33.88l0.031-0.147c0.084-0.401,8.513-40.463,16.139-62.315l2.813,0.982
				c-7.33,21.004-15.437,59.108-16.005,61.796L343.932,203.73z"/>
		</g>
		<g>
			<path fill="#445462" d="M251.363,220.427c-1.069,0-1.848-0.215-2.331-0.647c-0.245-0.219-0.464-0.489-0.653-0.767
				c-1.155,0.495-2.187,0.518-3.083,0.062c-1.89-0.964-1.984-3.555-1.989-3.848l-0.009-0.604l0.414-0.439
				c10.281-10.917,11.307-11.202,11.745-11.324c3.061-0.851,12.68,0.022,13.767,0.126l-0.28,2.966
				c-3.803-0.356-10.464-0.732-12.548-0.257c-1.059,0.742-5.78,5.521-10.04,10.027c0.076,0.341,0.198,0.631,0.296,0.699
				c0.086,0.022,0.571-0.047,1.474-0.681l1.568-1.105l0.682,1.794c0.132,0.342,0.376,0.809,0.557,1.036
				c0.996,0.186,4.673-0.704,8.074-1.963l0.457-0.169l0.468,0.133c2.897,0.825,8.793,1.706,12.273,1.979l-0.234,2.971
				c-3.516-0.277-9.16-1.111-12.38-1.955C255.979,219.771,253.229,220.427,251.363,220.427z"/>
		</g>
		<g>
			<path fill="#445462" d="M247.18,213.814c-2.099,0-3.638-1.808-4.255-2.976l-0.523-0.989l0.806-0.777
				c8.99-8.676,9.621-8.987,9.857-9.104c5.326-2.622,15.74-2.932,16.181-2.943l0.073-0.002l14.706,1.062l14.842,11.452l-1.821,2.359
				l-14.131-10.905l-13.659-0.985c-0.905,0.03-10.233,0.399-14.794,2.597c-0.754,0.57-4.961,4.553-8.242,7.707
				c0.321,0.319,0.714,0.582,1.097,0.513l0.521,2.934C247.611,213.795,247.393,213.814,247.18,213.814z M254.396,202.632
				c-0.005,0.003-0.01,0.005-0.015,0.008C254.386,202.638,254.391,202.635,254.396,202.632z"/>
		</g>
		<g>
			<path fill="#445462" d="M265.32,221.11c-0.564,0-1.124-0.017-1.679-0.048l0.175-2.977c8.033,0.479,17.688-3.016,28.867-7.058
				c9.851-3.562,21.017-7.601,32.556-9.196l0.408,2.951c-11.229,1.554-22.238,5.533-31.952,9.047
				C282.945,217.717,273.566,221.11,265.32,221.11z"/>
		</g>
		<g>
			<path fill="#445462" d="M240.734,265.751c-1.712,0-3.236-0.165-4.473-0.546l-0.786-0.241l-0.215-0.794
				c-0.198-0.735-4.886-18.092-6.138-24.363c-4.206-21.052-0.016-61.472,3.124-82.036c2.712-17.772,9.607-33.365,9.677-33.521
				l0.21-0.472l28.326-14.877l13.05-6.568l1.339,2.662l-13.027,6.557l-27.379,14.379c-1.147,2.694-6.861,16.63-9.251,32.29
				c-2.895,18.97-7.279,60.313-3.146,81.003c1.079,5.399,4.895,19.703,5.867,23.327c6.84,1.359,23.044-3.44,29.681-5.957
				c15.942-6.045,59.043-35.36,59.477-35.655l1.678,2.461c-1.781,1.215-43.828,29.812-60.098,35.98
				C263.646,261.277,249.646,265.751,240.734,265.751z"/>
		</g>
		<g>
			
				<rect x="226.861" y="289.683" transform="matrix(0.0371 0.9993 -0.9993 0.0371 534.0615 28.0788)" fill="#445462" width="51.198" height="2.979"/>
		</g>
		<g>
			<path fill="#445462" d="M289.942,315.104c-0.124-24.632-0.821-67.351-0.829-67.779l2.979-0.049
				c0.007,0.43,0.705,43.164,0.828,67.812L289.942,315.104z"/>
		</g>
		<g>
			<path fill="#445462" d="M290.243,206.039l-2.442-28.11c-0.446-1.99-7.728-34.214-16.202-54.857l2.756-1.132
				c8.801,21.439,16.302,55.103,16.377,55.438l0.029,0.194l2.45,28.209L290.243,206.039z"/>
		</g>
		<g>
			
				<rect x="253.058" y="187.38" transform="matrix(0.0269 0.9996 -0.9996 0.0269 445.4355 -79.8456)" fill="#445462" width="21.344" height="2.98"/>
		</g>
		<g>
			<path fill="#445462" d="M329.386,222.341l-2.959-0.345l2.314-19.826l13.867,0.066l15.061,3.315l0.263,0.202
				c0.37,0.282,9.073,6.953,11.286,9.031l-2.04,2.171c-1.898-1.783-9.305-7.491-10.796-8.637l-14.105-3.105l-10.885-0.053
				L329.386,222.341z"/>
		</g>
		<g>
			<path fill="#445462" d="M329.297,128.354l-11.024-13.25l-12.087,13.221l-21.06-22.05l8.707-10.433l25.024,12.97l22.481-12.921
				l10.817,9.522L329.297,128.354z M289.12,106.141l17.019,17.82l11.404-12.476l-22.955-11.897L289.12,106.141z M319.477,111.892
				l10.019,12.041l18.312-18.378l-6.834-6.017L319.477,111.892z"/>
		</g>
		<g>
			<rect x="321.249" y="249.972" fill="#445462" width="2.979" height="33.487"/>
		</g>
		<g>
			<path fill="#445462" d="M315.746,284.964c-8.709,0-17.587-0.488-24.617-1.95l0.607-2.917c20.123,4.185,57.274,0.021,57.647-0.021
				l0.337,2.96C348.705,283.151,332.543,284.964,315.746,284.964z"/>
		</g>
	</g>
	<g>
		<path fill="#FF3A65" d="M155.681,297.561v-20.14h-9.479v-57.112h72.911v57.112h-42.345L155.681,297.561z M148.542,275.08h9.48
			v17.009l17.809-17.009h40.941v-52.43h-68.23V275.08z"/>
	</g>
	<g>
		<g>
			<circle fill="#445462" cx="100.304" cy="173.761" r="2.089"/>
		</g>
		<g>
			<path fill="#445462" d="M172.838,145.29h-17.571c-3.958,0-7.179-3.221-7.179-7.178c0-3.959,3.22-7.179,7.179-7.179h17.571
				c3.44,0,6.24,2.799,6.24,6.239v1.878C179.079,142.492,176.279,145.29,172.838,145.29z M155.267,133.273
				c-2.667,0-4.838,2.17-4.838,4.839c0,2.667,2.171,4.837,4.838,4.837h17.571c2.15,0,3.899-1.748,3.899-3.898v-1.878
				c0-2.149-1.75-3.899-3.899-3.899H155.267z"/>
		</g>
		<g>
			<path fill="#445462" d="M172.838,157.306h-17.571c-3.958,0-7.179-3.221-7.179-7.179s3.22-7.179,7.179-7.179h17.571
				c3.44,0,6.24,2.8,6.24,6.24v1.877C179.079,154.507,176.279,157.306,172.838,157.306z M155.267,145.29
				c-2.667,0-4.838,2.17-4.838,4.838s2.171,4.838,4.838,4.838h17.571c2.15,0,3.899-1.749,3.899-3.899v-1.877
				c0-2.149-1.75-3.899-3.899-3.899H155.267z"/>
		</g>
		<g>
			<path fill="#445462" d="M172.838,169.323h-17.571c-3.958,0-7.179-3.221-7.179-7.179c0-3.959,3.22-7.179,7.179-7.179h17.571
				c3.44,0,6.24,2.799,6.24,6.239v1.878C179.079,166.523,176.279,169.323,172.838,169.323z M155.267,157.306
				c-2.667,0-4.838,2.17-4.838,4.838c0,2.667,2.171,4.837,4.838,4.837h17.571c2.15,0,3.899-1.748,3.899-3.898v-1.878
				c0-2.149-1.75-3.898-3.899-3.898H155.267z"/>
		</g>
		<g>
			<path fill="#445462" d="M172.838,181.339h-17.571c-3.958,0-7.179-3.22-7.179-7.18c0-3.958,3.22-7.179,7.179-7.179h17.571
				c3.44,0,6.24,2.801,6.24,6.241v1.877C179.079,178.54,176.279,181.339,172.838,181.339z M155.267,169.323
				c-2.667,0-4.838,2.171-4.838,4.837c0,2.668,2.171,4.839,4.838,4.839h17.571c2.15,0,3.899-1.75,3.899-3.899v-1.877
				c0-2.151-1.75-3.899-3.899-3.899H155.267z"/>
		</g>
		<g>
			<path fill="#445462" d="M120.657,149.104c-4.566-2.69-3.881-8.557-2.873-11.309c0.887-2.749,5.439-6.985,5.957-7.462l0.075-0.063
				c3.083-2.391,8.128-6.949,8.538-9.013c0.626-3.149,1.526-17.176,1.535-17.315l0.068-1.066l1.067-0.03
				c0.799-0.023,4.875-0.095,6.525,0.696c4.456,2.145,4.65,7.311,4.656,7.529v24.125h-2.341v-24.092
				c-0.005-0.125-0.174-3.936-3.328-5.452c-0.686-0.328-2.707-0.465-4.383-0.477c-0.228,3.415-0.948,13.737-1.504,16.54
				c-0.692,3.482-7.825,9.183-9.36,10.374c-1.79,1.65-4.775,4.825-5.282,6.438l-0.019,0.055c-0.09,0.247-2.18,6.127,1.857,8.506
				L120.657,149.104z"/>
		</g>
		<g>
			<path fill="#445462" d="M133.528,156.422c-1.235,0-2.464-0.296-3.556-0.856l1.068-2.082c0.773,0.396,1.61,0.598,2.487,0.598
				c3.008,0,5.456-2.446,5.456-5.456h2.34C141.324,152.924,137.827,156.422,133.528,156.422z"/>
		</g>
		<g>
			<path fill="#445462" d="M154.05,181.251h-27.896c-4.227,0-7.665-3.439-7.665-7.666v-1.458h2.342v1.458
				c0,2.936,2.388,5.324,5.323,5.324h27.896V181.251z"/>
		</g>
		<g>
			<rect x="108.616" y="140.829" fill="#445462" width="8.482" height="2.341"/>
		</g>
		<g>
			<rect x="108.616" y="174.757" fill="#445462" width="8.482" height="2.342"/>
		</g>
		<g>
			<path fill="#445462" d="M109.786,182.752H87.134v-50.76h22.651V182.752z M89.475,180.412h17.97v-46.077h-17.97V180.412z"/>
		</g>
		<g>
			<rect x="124.166" y="186.862" fill="#445462" width="38.964" height="2.341"/>
		</g>
		<g>
			<rect x="167.637" y="186.906" fill="#445462" width="5.654" height="2.341"/>
		</g>
	</g>
	<g>
		<path fill="#445462" d="M420.754,158.687c-3.863,0-7.399-2.499-8.583-6.363l-13.085-42.733c-0.249-0.812-0.871-1.469-1.666-1.76
			l-6.292-2.317l0.091-8.891l2.34,0.022l-0.074,7.243l4.743,1.745c1.478,0.544,2.635,1.768,3.095,3.271l13.085,42.734
			c1.045,3.412,4.572,5.387,8.027,4.492c1.789-0.462,3.265-1.606,4.159-3.224c0.893-1.616,1.076-3.478,0.516-5.237l-11.593-36.386
			c-0.774-2.429,0.387-5.068,2.701-6.138l3.939-1.822l0.982,2.125l-3.939,1.823c-1.245,0.575-1.869,1.994-1.453,3.302l11.593,36.385
			c0.758,2.38,0.51,4.894-0.697,7.08c-1.208,2.186-3.204,3.732-5.623,4.358C422.264,158.593,421.502,158.687,420.754,158.687z"/>
	</g>
	<g>
		
			<rect x="410.615" y="111.633" transform="matrix(0.2499 0.9683 -0.9683 0.2499 424.3057 -309.3051)" fill="#445462" width="2.341" height="15.14"/>
	</g>
	<g>
		<path fill="#445462" d="M476.938,125.475c-0.074-0.066-7.601-6.788-19.957-13.467c-11.372-6.148-29.284-13.521-50.041-13.734
			l-1.17-0.012l0.431-42.206l1.17,0.012c21.125,0.213,39.164-6.686,50.577-12.513c12.398-6.332,19.881-12.801,19.955-12.866
			l1.539,1.764c-0.31,0.271-7.729,6.691-20.363,13.153c-11.449,5.854-29.438,12.768-50.56,12.807l-0.384,37.539
			c20.765,0.475,38.617,7.855,50.021,14.029c12.582,6.812,20.038,13.474,20.349,13.754L476.938,125.475z"/>
	</g>
	<g>
		<path fill="#445462" d="M408.111,98.287l-4.351-0.045c-6.469-0.066-12.996-0.565-19.4-1.486l-0.548-0.079
			c-2.125-0.306-3.71-2.153-3.688-4.302l0.312-30.502c0.021-2.088,1.532-3.854,3.591-4.198c6.895-1.153,13.935-1.704,20.924-1.63
			l3.592,0.037L408.111,98.287z M403.741,58.379c-6.463,0-12.959,0.539-19.329,1.604c-0.938,0.158-1.627,0.962-1.636,1.913
			L382.464,92.4c-0.01,0.978,0.713,1.82,1.681,1.959l0.548,0.079c6.303,0.906,12.726,1.398,19.091,1.463l2.01,0.021l0.383-37.525
			l-1.251-0.012C404.531,58.381,404.136,58.379,403.741,58.379z"/>
	</g>
	<g>
		<path fill="#445462" d="M376.735,88.683l-4.971-0.051c-1.381-0.015-2.673-0.565-3.64-1.551c-0.966-0.986-1.491-2.29-1.477-3.671
			l0.135-13.208c0.03-2.851,2.376-5.152,5.222-5.117l4.568,0.047l-0.024,2.34l-4.569-0.046c-0.009,0-0.02,0-0.029,0
			c-1.546,0-2.812,1.25-2.828,2.798l-0.135,13.21c-0.008,0.755,0.279,1.468,0.808,2.007c0.529,0.54,1.237,0.841,1.992,0.848
			l4.971,0.051L376.735,88.683z"/>
	</g>
	<g>
		<path fill="#FF3A65" d="M493.548,90.078l-1.057-2.088c3.853-1.95,6.274-5.84,6.318-10.154c0.047-4.668-2.696-8.87-6.99-10.703
			l0.919-2.153c5.167,2.207,8.469,7.262,8.412,12.881C501.097,83.05,498.185,87.732,493.548,90.078z"/>
	</g>
	<g>
		<g>
			
				<rect x="497.239" y="44.205" transform="matrix(0.8608 0.5089 -0.5089 0.8608 94.4354 -246.7671)" fill="#445462" width="2.34" height="10.157"/>
		</g>
		<g>
			
				<rect x="509.197" y="56.409" transform="matrix(0.4913 0.871 -0.871 0.4913 313.1785 -413.2457)" fill="#445462" width="2.341" height="10.157"/>
		</g>
		<g>
			
				<rect x="509.542" y="76.867" transform="matrix(0.9999 0.0104 -0.0104 0.9999 0.8381 -5.3399)" fill="#445462" width="10.156" height="2.34"/>
		</g>
		<g>
			
				<rect x="504.951" y="93.324" transform="matrix(0.8609 0.5088 -0.5088 0.8609 119.0483 -246.3766)" fill="#445462" width="10.156" height="2.34"/>
		</g>
		<g>
			
				<rect x="492.746" y="105.282" transform="matrix(0.4911 0.8711 -0.8711 0.4911 346.0603 -379.4786)" fill="#445462" width="10.156" height="2.341"/>
		</g>
	</g>
	<g>
		
			<rect x="412.797" y="118.353" transform="matrix(0.2503 0.9682 -0.9682 0.2503 432.2739 -306.3853)" fill="#445462" width="2.341" height="15.14"/>
	</g>
	<g>
		<path fill="#445462" d="M469.217,78.736l-3.405-0.035l0.023-2.34l3.405,0.034L469.217,78.736z M462.407,78.667l-3.404-0.035
			l0.024-2.34l3.404,0.035L462.407,78.667z M455.599,78.598l-3.405-0.036l0.024-2.341l3.404,0.035L455.599,78.598z M448.79,78.527
			l-3.404-0.035l0.024-2.34l3.404,0.034L448.79,78.527z M441.98,78.457l-3.404-0.034l0.024-2.341l3.404,0.034L441.98,78.457z
			 M435.171,78.389l-3.404-0.036l0.024-2.34l3.405,0.035L435.171,78.389z"/>
	</g>
	<g>
		<path fill="#445462" d="M484.311,132.484c-0.01,0-0.019,0-0.029,0l-5.143-0.052c-1.471-0.017-2.656-1.226-2.641-2.696
			l1.065-104.246c0.008-0.713,0.292-1.38,0.802-1.879c0.502-0.492,1.165-0.762,1.867-0.762c0.009,0,0.019,0,0.028,0l5.144,0.052
			c1.471,0.015,2.655,1.225,2.641,2.697l-1.067,104.245c-0.006,0.714-0.291,1.381-0.8,1.879
			C485.675,132.213,485.013,132.484,484.311,132.484z M480.233,25.188c-0.11,0-0.186,0.051-0.23,0.094
			c-0.044,0.044-0.097,0.119-0.098,0.231l-1.066,104.246c-0.002,0.181,0.144,0.33,0.325,0.332l5.143,0.052
			c0.125,0.004,0.188-0.05,0.233-0.094c0.044-0.044,0.097-0.118,0.098-0.23l1.067-104.246c0.001-0.181-0.144-0.33-0.325-0.331
			l-5.143-0.053C480.235,25.188,480.234,25.188,480.233,25.188z"/>
	</g>
	<g>
		<g>
			<rect x="99.349" y="279.983" fill="#445462" width="2.341" height="15.606"/>
		</g>
		<g>
			<path fill="#445462" d="M130.582,318.517c-4.111-9.906-11.003-17.642-19.406-21.781l-11.187-5.698l1.062-2.086l11.172,5.692
				c8.898,4.384,16.191,12.545,20.521,22.976L130.582,318.517z"/>
		</g>
		<g>
			<rect x="78.142" y="280.766" fill="#445462" width="2.341" height="14.823"/>
		</g>
	</g>
	<g>
		<path fill="#445462" d="M50.316,318.52l-2.156-0.908c4.34-10.296,11.592-18.36,20.418-22.708l9.97-4.912l1.034,2.101l-9.969,4.911
			C61.292,301.102,54.439,308.744,50.316,318.52z"/>
	</g>
	<g>
		<path fill="#445462" d="M89.644,308.373c-8.877,0-16.584-5.697-19.179-14.179l2.238-0.684c2.292,7.489,9.1,12.521,16.941,12.521
			c8.192,0,15.269-5.551,17.209-13.497l2.273,0.556C106.93,302.087,98.918,308.373,89.644,308.373z"/>
	</g>
	<g>
		<path fill="#445462" d="M89.493,287.581L89.493,287.581c-3.461,0-6.74-1.524-9.481-4.409l-4.468-4.699
			c-3.863-4.065-6.171-10.526-6.171-17.281v-13.35h21.381l7.559-10.28l4.219,10.546h4.742v-3.181h2.341v16.265
			c0.091,5.024-1.99,12.577-6.144,17.252l-4.495,4.729C96.234,286.056,92.955,287.581,89.493,287.581z M71.713,250.182v11.009
			c0,6.17,2.066,12.027,5.527,15.668l4.468,4.7c2.289,2.409,4.98,3.681,7.785,3.681s5.497-1.271,7.786-3.681l4.468-4.7
			c3.689-4.151,5.607-11.169,5.527-15.647l-0.001-10.763h-6.327l-3.243-8.108l-5.766,7.842H71.713z"/>
	</g>
	<g>
		<path fill="#445462" d="M73.593,241.549h-2.341c0-9.375,7.015-17.27,16.318-18.365l0.273,2.324
			C79.719,226.464,73.593,233.361,73.593,241.549z"/>
	</g>
	<g>
		<path fill="#445462" d="M95.843,226.593c-1.391-0.57-2.854-0.941-4.351-1.103l0.251-2.327c1.714,0.186,3.393,0.61,4.986,1.264
			L95.843,226.593z"/>
	</g>
	<g>
		<path fill="#445462" d="M116.767,288.381h-10.924v-2.34h8.583v-44.492c0-13.609-11.071-24.681-24.681-24.681
			c-13.609,0-24.681,11.071-24.681,24.681v44.048h2.225l3.353-4.693l2.977,4.959h3.601v2.342h-4.927l-1.821-3.036l-1.977,2.77
			h-5.771v-46.389c0-14.899,12.122-27.021,27.021-27.021c14.9,0,27.021,12.122,27.021,27.021V288.381z"/>
	</g>
	<g>
		<path fill="#445462" d="M89.336,314.962c-11.269,0-21.053-7.233-24.347-17.999l2.238-0.685
			c2.991,9.775,11.875,16.343,22.109,16.343c10.692,0,19.928-7.243,22.458-17.616l2.274,0.556
			C111.281,306.984,101.11,314.962,89.336,314.962z"/>
	</g>
	<g>
		<path fill="#445462" d="M156.2,317.65l-2.001-1.213c3.374-5.569,6.002-11.553,7.812-17.786l2.248,0.652
			C162.39,305.734,159.679,311.906,156.2,317.65z"/>
	</g>
	<g>
		<path fill="#445462" d="M24.442,317.947c-7.384-12.065-11.288-25.96-11.288-40.179c0-42.5,34.576-77.076,77.076-77.076
			c20.452,0,39.716,7.926,54.244,22.319l-1.648,1.662c-14.087-13.956-32.767-21.641-52.596-21.641
			c-41.209,0-74.735,33.525-74.735,74.735c0,13.788,3.784,27.259,10.943,38.956L24.442,317.947z"/>
	</g>
	<g>
		<circle fill="#445462" cx="227.053" cy="113.306" r="4.102"/>
	</g>
	<g>
		<path fill="#445462" d="M227.053,134.337c-11.486,0-20.831-9.345-20.831-20.831s9.345-20.831,20.831-20.831
			s20.831,9.345,20.831,20.831c0,1.792-0.229,3.572-0.678,5.29l-2.264-0.593c0.399-1.525,0.601-3.105,0.601-4.697
			c0-10.196-8.294-18.489-18.49-18.489c-10.195,0-18.491,8.293-18.491,18.489s8.296,18.491,18.491,18.491
			c2.93,0,5.731-0.665,8.327-1.977l1.055,2.09C233.509,133.588,230.353,134.337,227.053,134.337z"/>
	</g>
	<g>
		<path fill="#445462" d="M226.1,151.451c-1.167-0.03-2.345-0.112-3.5-0.247l0.271-2.325c1.085,0.126,2.191,0.204,3.287,0.231
			L226.1,151.451z M219.135,150.634c-1.141-0.242-2.283-0.541-3.397-0.888l0.698-2.234c1.044,0.325,2.116,0.605,3.186,0.832
			L219.135,150.634z M212.439,148.546c-1.075-0.449-2.142-0.954-3.174-1.502l1.099-2.066c0.967,0.513,1.968,0.986,2.977,1.407
			L212.439,148.546z M206.246,145.255c-0.975-0.641-1.931-1.334-2.842-2.061l1.459-1.831c0.855,0.684,1.753,1.334,2.668,1.935
			L206.246,145.255z M200.762,140.881c-0.841-0.809-1.654-1.663-2.417-2.547l1.769-1.531c0.716,0.828,1.48,1.633,2.27,2.39
			L200.762,140.881z M196.172,135.578c-0.68-0.948-1.322-1.939-1.91-2.946l2.021-1.182c0.552,0.945,1.155,1.876,1.792,2.767
			L196.172,135.578z M192.632,129.521c-0.493-1.058-0.942-2.15-1.333-3.249l2.204-0.787c0.368,1.03,0.789,2.056,1.251,3.048
			L192.632,129.521z M190.273,122.914c-0.288-1.13-0.526-2.286-0.708-3.439l2.312-0.365c0.17,1.082,0.394,2.167,0.664,3.228
			L190.273,122.914z M189.178,115.987c-0.053-0.819-0.08-1.653-0.08-2.48c0-0.344,0.004-0.687,0.014-1.027l2.34,0.06
			c-0.009,0.323-0.013,0.646-0.013,0.969c0,0.775,0.025,1.559,0.075,2.328L189.178,115.987z M191.69,109.253l-2.324-0.275
			c0.137-1.158,0.331-2.323,0.575-3.464l2.289,0.49C192,107.075,191.819,108.167,191.69,109.253z M262.252,108.047
			c-0.167-1.083-0.386-2.169-0.651-3.229l2.27-0.568c0.283,1.129,0.517,2.288,0.695,3.441L262.252,108.047z M193.07,102.82
			l-2.233-0.7c0.35-1.111,0.755-2.221,1.207-3.297l2.159,0.906C193.777,100.739,193.396,101.778,193.07,102.82z M260.651,101.664
			c-0.363-1.03-0.78-2.058-1.238-3.052l2.125-0.98c0.489,1.06,0.933,2.155,1.321,3.255L260.651,101.664z M195.616,96.755
			l-2.064-1.103c0.549-1.028,1.153-2.043,1.795-3.017l1.954,1.288C196.698,94.838,196.131,95.791,195.616,96.755z M257.896,95.687
			c-0.548-0.947-1.148-1.88-1.781-2.771l1.908-1.354c0.676,0.95,1.314,1.943,1.898,2.953L257.896,95.687z M199.24,91.261
			l-1.827-1.464c0.729-0.91,1.509-1.796,2.318-2.636l1.686,1.625C200.655,89.574,199.923,90.407,199.24,91.261z M254.086,90.32
			c-0.714-0.832-1.474-1.639-2.26-2.401l1.628-1.68c0.838,0.811,1.647,1.671,2.407,2.555L254.086,90.32z M203.81,86.522
			l-1.528-1.774c0.885-0.762,1.814-1.492,2.762-2.166l1.359,1.905C205.512,85.122,204.64,85.806,203.81,86.522z M249.356,85.739
			c-0.853-0.686-1.747-1.34-2.66-1.944l1.292-1.952c0.973,0.644,1.926,1.341,2.834,2.071L249.356,85.739z M209.17,82.7l-1.176-2.022
			c1.009-0.588,2.057-1.134,3.114-1.625l0.984,2.124C211.1,81.637,210.117,82.15,209.17,82.7z M243.869,82.104
			c-0.964-0.518-1.964-0.995-2.971-1.42l0.91-2.157c1.074,0.453,2.14,0.963,3.167,1.514L243.869,82.104z M215.142,79.933
			l-0.783-2.206c1.1-0.39,2.229-0.732,3.36-1.019l0.574,2.269C217.233,79.246,216.172,79.567,215.142,79.933z M237.808,79.545
			c-1.042-0.331-2.114-0.615-3.183-0.846l0.496-2.288c1.14,0.247,2.282,0.551,3.393,0.901L237.808,79.545z M221.52,78.32
			l-0.36-2.313c1.15-0.179,2.324-0.307,3.489-0.38l0.146,2.336C223.701,78.031,222.6,78.151,221.52,78.32z M231.376,78.152
			c-1.083-0.132-2.189-0.214-3.285-0.246l0.066-2.339c1.169,0.032,2.347,0.121,3.501,0.26L231.376,78.152z"/>
	</g>
	<g>
		<g>
			<g>
				<path fill="#FF3A65" d="M225.944,178.218c-4.352-0.08-8.729-0.605-13.012-1.563c-4.753-1.063-9.373-2.652-13.73-4.726
					l1.006-2.114c4.2,1.999,8.653,3.531,13.235,4.556c4.129,0.924,8.35,1.43,12.543,1.507L225.944,178.218z"/>
			</g>
			<g>
				<path fill="#FF3A65" d="M191.305,167.464c-2.435-1.614-4.782-3.412-6.978-5.345l1.547-1.757
					c2.115,1.862,4.378,3.595,6.724,5.149L191.305,167.464z"/>
			</g>
			<g>
				<path fill="#FF3A65" d="M163.226,124.25c-1.392-8.258-1.164-16.623,0.679-24.865l2.284,0.511
					c-1.776,7.944-1.997,16.008-0.655,23.965L163.226,124.25z"/>
			</g>
			<g>
				<path fill="#FF3A65" d="M287.25,97.146c-6.106-22.39-23.958-39.443-46.585-44.503c-29.811-6.667-60.636,9.734-71.705,38.149
					l-2.181-0.85c5.555-14.259,16.075-26.13,29.622-33.424c13.686-7.369,29.587-9.556,44.774-6.159
					c23.477,5.25,41.997,22.942,48.333,46.17L287.25,97.146z"/>
			</g>
		</g>
	</g>
	<g>
		<path fill="#445462" d="M169.637,219.515l-2.068-1.096l1.594-3.008l2.068,1.096L169.637,219.515z M172.825,213.499l-2.068-1.097
			l1.594-3.008l2.069,1.097L172.825,213.499z M176.013,207.481l-2.068-1.096l1.594-3.008l2.069,1.096L176.013,207.481z
			 M179.202,201.465l-2.069-1.096l1.594-3.009l2.068,1.097L179.202,201.465z M182.39,195.448l-2.068-1.096l1.594-3.008l2.069,1.096
			L182.39,195.448z M185.578,189.43l-2.068-1.095l1.594-3.009l2.069,1.097L185.578,189.43z M188.766,183.415l-2.068-1.096
			l1.594-3.009l2.069,1.097L188.766,183.415z M191.955,177.397l-2.068-1.095l1.594-3.009l2.068,1.097L191.955,177.397z
			 M195.142,171.381l-2.068-1.096l1.595-3.01l2.068,1.097L195.142,171.381z M198.33,165.364l-2.068-1.096l1.594-3.008l2.068,1.096
			L198.33,165.364z M201.518,159.348l-2.068-1.096l1.594-3.01l2.068,1.097L201.518,159.348z M204.707,153.331l-2.069-1.096
			l1.595-3.009l2.068,1.096L204.707,153.331z"/>
	</g>
	<g>
		<g>
			<path fill="#445462" d="M176.199,245.345h6.28v4.397h-6.28v7.222h-4.814v-7.222h-6.314v-4.397h6.314v-6.872h4.814V245.345z"/>
		</g>
		<g>
			<path fill="#445462" d="M196.819,259.511h-5.095v-20.898h-5.163v-3.593l10.257-0.909V259.511z"/>
		</g>
	</g>
	<g>
		<path fill="#FF3A65" d="M30.666,215.391l-0.763-0.653c-0.179-0.154-17.922-15.374-23.167-20.001
			c-9-7.942-8.192-19.746-2.211-26.571c4.999-5.703,14.771-8.903,26.094,0.442c11.34-9.357,21.135-6.143,26.15-0.422
			c5.98,6.825,6.795,18.621-2.191,26.551c-5.244,4.627-22.972,19.847-23.15,20.001L30.666,215.391z M16.418,165.092
			c-4.313,0-7.828,1.985-10.134,4.617c-5.224,5.962-5.905,16.296,2,23.272c4.608,4.066,18.911,16.347,22.38,19.324
			c3.467-2.978,17.756-15.258,22.365-19.324c7.891-6.963,7.202-17.291,1.979-23.252c-4.419-5.042-13.256-7.728-23.621,1.295
			l-0.769,0.668l-0.769-0.668C24.922,166.734,20.34,165.092,16.418,165.092z"/>
	</g>
	<g>
		<path fill="#445462" d="M151.61,71.093l-0.763-0.653c-0.099-0.085-9.9-8.492-12.799-11.05c-5.215-4.602-4.741-11.449-1.269-15.411
			c2.867-3.272,8.404-5.153,14.806-0.084c6.021-4.74,11.738-3.437,14.833,0.095c3.472,3.962,3.951,10.805-1.257,15.4
			c-2.898,2.558-12.69,10.964-12.789,11.05L151.61,71.093z M143.727,43.119c-2.18,0-3.961,1.003-5.188,2.402
			c-2.716,3.098-3.063,8.478,1.058,12.113c2.412,2.128,9.641,8.339,12.013,10.375c2.37-2.035,9.592-8.246,12.003-10.375
			c4.113-3.629,3.761-9.002,1.045-12.102c-2.391-2.727-6.878-3.959-12.306,0.765l-0.769,0.668l-0.769-0.668
			C148.187,44.009,145.78,43.119,143.727,43.119z"/>
	</g>
	<g>
		<path fill="#FF3A65" d="M487.423,317.634l2.438-0.231c-0.866-9.132-5.235-17.38-12.304-23.226
			c-7.07-5.845-15.995-8.586-25.124-7.722c-15.825,1.499-28.47,13.519-30.75,29.229l2.423,0.351
			c2.117-14.589,13.86-25.751,28.557-27.144c8.48-0.802,16.768,1.743,23.333,7.172C482.561,301.493,486.62,309.153,487.423,317.634z
			"/>
	</g>
	<g>
		<polygon fill="#445462" points="424.166,293.283 426.603,293.051 420.203,225.516 443.346,223.324 443.115,220.885 
			417.535,223.309 		"/>
	</g>
	<g>
		
			<rect x="465.759" y="216.926" transform="matrix(-0.9955 0.0943 -0.0943 -0.9955 988.3403 389.5768)" fill="#445462" width="38.405" height="2.448"/>
	</g>
	<g>
		<polygon fill="#445462" points="559.893,320.269 562.33,320.039 551.827,210.583 526.043,213.027 526.274,215.464 549.62,213.251 
					"/>
	</g>
	<g>
		<path fill="#445462" d="M509.231,229.398l-2.596-27.394c-0.174-1.837,1.179-3.473,3.016-3.646l7.486-0.71
			c0.891-0.084,1.759,0.183,2.448,0.753c0.688,0.569,1.114,1.372,1.199,2.263l2.596,27.394c0.084,0.891-0.183,1.759-0.753,2.448
			c-0.569,0.688-1.373,1.114-2.263,1.199l-7.486,0.709c-0.107,0.01-0.213,0.015-0.318,0.015
			C510.856,232.428,509.395,231.128,509.231,229.398z M520.133,229.267c0.239-0.022,0.454-0.138,0.607-0.322
			s0.225-0.418,0.202-0.656l-2.596-27.394c-0.022-0.239-0.138-0.455-0.322-0.607c-0.185-0.153-0.419-0.226-0.657-0.202l-7.486,0.71
			c-0.493,0.046-0.856,0.485-0.81,0.978l2.596,27.395c0.046,0.492,0.487,0.857,0.979,0.809L520.133,229.267z"/>
	</g>
	<g>
		<path fill="#445462" d="M449.816,237.405c-0.688-0.569-1.115-1.372-1.199-2.263l-2.596-27.394c-0.084-0.89,0.183-1.76,0.753-2.448
			c0.569-0.688,1.373-1.114,2.263-1.199l7.486-0.709c0.891-0.084,1.759,0.183,2.448,0.752c0.688,0.57,1.115,1.374,1.199,2.264
			l2.596,27.394c0.084,0.89-0.183,1.76-0.752,2.448c-0.569,0.688-1.373,1.115-2.263,1.198l-7.485,0.71
			c-0.108,0.01-0.216,0.016-0.322,0.016C451.167,238.173,450.422,237.906,449.816,237.405z M456.754,205.83l-7.486,0.709
			c-0.239,0.023-0.455,0.137-0.607,0.321c-0.153,0.185-0.224,0.419-0.202,0.657l2.596,27.395c0.022,0.238,0.137,0.454,0.321,0.606
			c0.185,0.153,0.419,0.226,0.657,0.202l7.486-0.71c0.239-0.022,0.454-0.137,0.607-0.32c0.152-0.186,0.224-0.419,0.201-0.658
			l-2.596-27.393c-0.022-0.239-0.137-0.455-0.322-0.608c-0.163-0.134-0.362-0.206-0.571-0.206
			C456.812,205.825,456.783,205.827,456.754,205.83z"/>
	</g>
	<g>
		<path fill="#445462" d="M523.245,257.239l14.537-1.377l1.377,14.536l-14.536,1.377L523.245,257.239z M535.574,258.53l-9.661,0.915
			l0.916,9.662l9.661-0.916L535.574,258.53z"/>
	</g>
	<g>
		<path fill="#445462" d="M496.763,259.749l14.536-1.377l1.377,14.536l-14.536,1.377L496.763,259.749z M509.092,261.04l-9.662,0.915
			l0.916,9.662l9.661-0.916L509.092,261.04z"/>
	</g>
	<g>
		<path fill="#445462" d="M499.076,284.167l14.537-1.377l1.377,14.536l-14.536,1.378L499.076,284.167z M511.407,285.458
			l-9.662,0.916l0.916,9.661l9.662-0.916L511.407,285.458z"/>
	</g>
	<g>
		<polygon fill="#445462" points="541.233,318.249 543.671,318.017 542.409,304.7 527.873,306.078 528.937,317.305 531.374,317.074 
			530.541,308.284 540.202,307.368 		"/>
	</g>
	<g>
		<polygon fill="#445462" points="514.445,317.523 516.882,317.292 515.927,307.209 501.391,308.586 502.218,317.322 
			504.655,317.09 504.059,310.793 513.72,309.877 		"/>
	</g>
	<g>
		<path fill="#445462" d="M470.28,262.258l14.537-1.378l1.377,14.536l-14.536,1.378L470.28,262.258z M482.61,263.549l-9.661,0.915
			l0.915,9.662l9.662-0.916L482.61,263.549z"/>
	</g>
	<g>
		<path fill="#445462" d="M443.799,264.767l14.536-1.377l1.378,14.536l-14.537,1.378L443.799,264.767z M456.128,266.058
			l-9.662,0.916l0.916,9.662l9.662-0.916L456.128,266.058z"/>
	</g>
	<g>
		
			<rect x="421.277" y="245.469" transform="matrix(-0.9955 0.0943 -0.0943 -0.9955 996.0988 446.2947)" fill="#445462" width="132.445" height="2.448"/>
	</g>
	<g>
		<path fill="#445462" d="M460.347,318.269l2.183-1.109c-1.44-2.834-4.415-4.477-7.582-4.172c-2.469,0.234-4.686,1.656-5.931,3.805
			l2.119,1.228c0.849-1.465,2.36-2.435,4.043-2.595C457.336,315.22,459.364,316.337,460.347,318.269z"/>
	</g>
	<g>
		
			<rect x="453.047" y="297.459" transform="matrix(-0.9956 0.0941 -0.0941 -0.9956 935.3147 567.5839)" fill="#445462" width="2.448" height="16.785"/>
	</g>
	<g>
		<path fill="#445462" d="M525.67,281.899l14.537-1.377l1.377,14.536l-14.536,1.378L525.67,281.899z M538,283.19l-9.662,0.916
			l0.916,9.661l9.662-0.916L538,283.19z"/>
	</g>
</g>
</svg>
