<?xml version="1.0" encoding="utf-8"?>
<!-- Generator: Adobe Illustrator 15.0.0, SVG Export Plug-In . SVG Version: 6.00 Build 0)  -->
<!DOCTYPE svg PUBLIC "-//W3C//DTD SVG 1.1//EN" "http://www.w3.org/Graphics/SVG/1.1/DTD/svg11.dtd">
<svg version="1.1" id="Layer_1" xmlns="http://www.w3.org/2000/svg" xmlns:xlink="http://www.w3.org/1999/xlink" x="0px" y="0px"
	 width="90px" height="80px" viewBox="0 0 90 80" enable-background="new 0 0 90 80" xml:space="preserve">
<g>
	<polygon fill="#FF3A65" points="85.792,63.745 49.458,63.745 49.458,71.15 85.816,71.15 	"/>
	<g>
		<path fill="#445462" d="M31.049,11.907c-0.32,0-0.635-0.151-0.83-0.434c-0.444-0.639-0.805-1.333-1.071-2.065
			c-0.216-0.591-0.369-1.208-0.459-1.834c-0.078-0.552,0.306-1.063,0.858-1.142c0.55-0.076,1.063,0.306,1.142,0.858
			c0.069,0.487,0.189,0.967,0.356,1.427c0.207,0.568,0.487,1.108,0.832,1.605c0.318,0.458,0.205,1.087-0.253,1.405
			C31.449,11.848,31.249,11.907,31.049,11.907z"/>
	</g>
	<g>
		<path fill="#445462" d="M23.476,22.46c-0.164,0-0.331-0.04-0.485-0.124c-0.489-0.269-0.668-0.883-0.399-1.372
			c0.104-0.189,0.562-1.136,1.046-2.14c1.629-3.374,2.455-5.05,2.747-5.457c1.058-1.477,2.325-2.804,3.766-3.944
			c0.219-0.173,0.503-0.247,0.776-0.206c0.275,0.041,0.522,0.195,0.682,0.425c1.761,2.549,3.938,4.727,6.469,6.47
			c3.13,2.156,6.791,3.603,10.589,4.183c0.55,0.084,0.929,0.6,0.845,1.151c-0.085,0.551-0.593,0.933-1.15,0.845
			c-4.093-0.625-8.045-2.188-11.425-4.516c-2.432-1.675-4.56-3.719-6.338-6.087c-0.961,0.858-1.822,1.816-2.567,2.856
			c-0.27,0.395-1.766,3.493-2.57,5.157c-0.615,1.277-0.971,2.01-1.093,2.234C24.178,22.271,23.833,22.46,23.476,22.46z"/>
	</g>
	<g>
		<path fill="#445462" d="M52.768,36.783c-0.199,0-0.397-0.059-0.576-0.182c-0.459-0.317-0.568-0.947-0.254-1.405
			c0.021-0.025,1.738-2.536,1.877-5.016c0.119-2.144-0.299-3.576-0.703-4.96c-0.379-1.298-0.771-2.641-0.623-4.367
			c0.609-7.142-6.293-14.417-6.359-14.489C41.03,1.267,35.962,1.841,34.02,2.324c-2.149,0.535-3.4,1.595-3.568,2.142
			c-0.143,0.463-0.602,0.759-1.075,0.708c-0.951-0.107-1.995,0.48-2.961,1.644c-0.027,0.033-0.057,0.064-0.088,0.093
			c-0.088,0.082-8.702,8.24-6.29,15.478c1.656,4.969,1.093,7.237,0.237,8.947c-0.606,1.211,0.042,2.839,0.44,3.238
			c0.395,0.395,0.395,1.034,0,1.428s-1.034,0.395-1.429,0c-0.981-0.982-1.838-3.53-0.818-5.569c0.445-0.89,1.273-2.545-0.347-7.405
			c-2.751-8.254,5.965-16.775,6.78-17.549c1.196-1.42,2.58-2.227,3.967-2.326c0.784-1.19,2.539-2.261,4.665-2.789
			c2.275-0.565,8.197-1.252,14.033,4.586c0.324,0.336,7.621,8.013,6.935,16.074c-0.114,1.352,0.192,2.407,0.551,3.631
			c0.431,1.476,0.919,3.148,0.78,5.637c-0.171,3.062-2.152,5.938-2.236,6.059C53.398,36.631,53.085,36.783,52.768,36.783z"/>
	</g>
	<g>
		<path fill="#445462" d="M16.61,42.561c-0.271,0-0.541-0.105-0.74-0.319c-0.379-0.408-0.356-1.05,0.053-1.431
			c2.944-2.735,6.583-4.553,10.524-5.247l0.146-0.024c0.057-0.011,0.111-0.021,0.164-0.029c0.55-0.08,1.064,0.302,1.145,0.854
			c0.081,0.551-0.301,1.064-0.854,1.146l-0.069,0.013c-0.076,0.014-0.155,0.029-0.234,0.039c-3.503,0.618-6.788,2.256-9.446,4.729
			C17.103,42.471,16.856,42.561,16.61,42.561z"/>
	</g>
	<g>
		<path fill="#445462" d="M55.854,42.561c-0.246,0-0.492-0.09-0.688-0.271c-2.658-2.474-5.943-4.111-9.499-4.737
			c-0.026-0.002-0.104-0.017-0.182-0.031l-0.069-0.013c-0.552-0.081-0.935-0.594-0.854-1.146c0.081-0.552,0.598-0.935,1.146-0.854
			c0.052,0.008,0.106,0.018,0.164,0.029l0.092,0.017c3.994,0.702,7.634,2.516,10.578,5.255c0.408,0.379,0.433,1.019,0.052,1.426
			C56.395,42.451,56.123,42.561,55.854,42.561z"/>
	</g>
	<g>
		<path fill="#445462" d="M36.224,41.141c-3.589,0-7.052-1.332-10.013-3.85c-0.425-0.361-0.477-0.999-0.115-1.423
			c0.362-0.424,0.998-0.477,1.424-0.115c2.591,2.202,5.601,3.367,8.704,3.367c3.095,0,6.093-1.152,8.67-3.333
			c0.428-0.36,1.064-0.306,1.424,0.119c0.355,0.426,0.307,1.062-0.119,1.424C43.251,39.821,39.802,41.141,36.224,41.141z"/>
	</g>
	<g>
		<path fill="#445462" d="M32.962,79.616c-0.014,0-0.029,0-0.044,0c-8.725-0.384-17.218-2.214-25.244-5.441
			c-0.383-0.153-0.634-0.522-0.634-0.936v-5.791c0-0.56,0.453-1.011,1.011-1.011c0.557,0,1.01,0.451,1.01,1.011v5.104
			c7.302,2.858,14.994,4.536,22.892,4.991V49.456c-7.886-0.442-15.575-2.071-22.892-4.849v3.983c0,0.562-0.453,1.015-1.01,1.015
			c-0.558,0-1.011-0.453-1.011-1.015v-5.466c0-0.336,0.167-0.646,0.444-0.837c0.278-0.188,0.632-0.228,0.942-0.104
			c7.814,3.146,16.084,4.924,24.58,5.297c0.54,0.022,0.966,0.472,0.966,1.012V78.6c0,0.274-0.112,0.539-0.312,0.729
			C33.473,79.518,33.222,79.616,32.962,79.616z"/>
	</g>
	<g>
		<path fill="#445462" d="M39.696,79.23c-0.558,0-1.01-0.453-1.01-1.01V48.496c0-0.54,0.426-0.985,0.966-1.01
			c8.497-0.372,16.765-2.153,24.579-5.295c0.312-0.125,0.664-0.088,0.942,0.101s0.444,0.501,0.444,0.837v5.467
			c0,0.559-0.452,1.01-1.01,1.01c-0.562,0-1.01-0.451-1.01-1.01v-3.988c-7.318,2.777-15.01,4.406-22.896,4.853v28.769
			C40.706,78.777,40.253,79.23,39.696,79.23z"/>
	</g>
	<g>
		<path fill="#445462" d="M36.073,50.291c-1.28,0-2.533-0.236-3.726-0.706c-0.52-0.205-0.774-0.791-0.569-1.31
			c0.203-0.521,0.793-0.774,1.309-0.57c1.912,0.751,4.062,0.751,5.974,0c0.517-0.206,1.105,0.051,1.31,0.57
			c0.204,0.519-0.051,1.104-0.57,1.31C38.607,50.055,37.353,50.291,36.073,50.291z"/>
	</g>
	<g>
		<path fill="#445462" d="M36.073,80.001c-1.281,0-2.534-0.237-3.726-0.707c-0.52-0.205-0.774-0.791-0.569-1.312
			c0.204-0.521,0.792-0.772,1.31-0.567c0.954,0.375,1.959,0.565,2.985,0.565c0.593,0,1.948-0.188,3.254-0.698
			c0.517-0.207,1.104,0.049,1.309,0.567c0.205,0.521-0.051,1.104-0.57,1.311C38.598,79.736,36.967,80.001,36.073,80.001z"/>
	</g>
	<g>
		<path fill="#445462" d="M59.82,64.357c-0.288,0-0.573-0.123-0.772-0.36c-0.464-0.552-0.719-1.249-0.719-1.968
			c0-1.709,1.252-2.997,2.912-2.997c0.558,0,1.01,0.45,1.01,1.01c0,0.558-0.452,1.01-1.01,1.01c-0.659,0-0.894,0.527-0.894,0.979
			c0,0.311,0.133,0.533,0.241,0.666c0.359,0.427,0.308,1.062-0.118,1.424C60.281,64.279,60.05,64.357,59.82,64.357z"/>
	</g>
	<g>
		<path fill="#445462" d="M66.872,64.494c-0.274,0-0.55-0.112-0.749-0.332c-0.374-0.413-0.344-1.053,0.07-1.428
			c0.23-0.211,0.385-0.5,0.422-0.812l0.646-5.361c0.092-0.766,0.021-1.521-0.214-2.259c-0.251-0.796-0.979-1.329-1.812-1.329h-5.935
			c-0.558,0-1.011,0.451-1.011,1.01c0,0.576,0.396,1.012,0.927,1.012c0.56,0,1.013,0.451,1.013,1.01
			c0,0.561-0.453,1.014-1.013,1.014c-1.651,0-2.944-1.332-2.944-3.031c0-1.67,1.356-3.027,3.028-3.027h5.935
			c1.722,0,3.225,1.104,3.74,2.743c0.315,1.009,0.416,2.054,0.289,3.106l-0.646,5.359c-0.098,0.795-0.479,1.527-1.071,2.066
			C67.355,64.408,67.113,64.494,66.872,64.494z"/>
	</g>
	<g>
		<path fill="#445462" d="M61.914,61.052c-0.002,0-0.005,0-0.007,0l-2.095-0.015c-1.752,0-3.621-1.057-3.621-3.016
			c0-1.812,1.218-3.03,3.029-3.03h2.689c0.561,0,1.01,0.452,1.01,1.01c0,0.56-0.449,1.011-1.01,1.011h-2.689
			c-0.894,0-1.014,0.512-1.014,1.01c0,0.685,0.961,0.996,1.605,0.996l2.104,0.019c0.56,0.004,1.006,0.459,1.002,1.019
			C62.92,60.604,62.469,61.052,61.914,61.052z"/>
	</g>
	<g>
		<path fill="#445462" d="M10.931,65.091H7c-1.681,0-3.1-1.258-3.301-2.926l-0.646-5.362c-0.127-1.05-0.03-2.097,0.289-3.107
			c0.518-1.641,2.02-2.739,3.739-2.739h5.934c1.671,0,3.03,1.356,3.03,3.026c0,1.699-1.295,3.029-2.947,3.029
			c-0.558,0-1.01-0.451-1.01-1.011c0-0.558,0.452-1.01,1.01-1.01c0.528,0,0.927-0.435,0.927-1.011c0-0.56-0.452-1.01-1.01-1.01
			H7.083c-0.833,0-1.562,0.532-1.813,1.328c-0.231,0.735-0.302,1.495-0.209,2.262l0.646,5.358C5.785,62.577,6.34,63.07,7,63.07
			h3.931c0.573,0,1.041-0.467,1.041-1.041c0-0.45-0.234-0.979-0.893-0.979c-0.558,0-1.01-0.452-1.01-1.01
			c0-0.56,0.452-1.011,1.01-1.011c1.66,0,2.912,1.287,2.912,2.998C13.992,63.718,12.619,65.091,10.931,65.091z"/>
	</g>
	<g>
		<path fill="#445462" d="M9.397,61.052c-0.555,0-1.006-0.448-1.01-1.004c-0.003-0.559,0.446-1.012,1.004-1.016l2.43-0.017
			c0.655,0,1.615-0.313,1.615-0.994c0-0.5-0.12-1.014-1.01-1.014H9.397c-0.558,0-1.01-0.449-1.01-1.011
			c0-0.56,0.452-1.011,1.01-1.011h3.029c1.812,0,3.029,1.22,3.029,3.027c0,1.961-1.87,3.02-3.629,3.02L9.403,61.05
			C9.401,61.052,9.399,61.052,9.397,61.052z"/>
	</g>
	<g>
		<path fill="#445462" d="M80.094,79.902H43.736c-0.558,0-1.01-0.45-1.01-1.01v-7.406c0-0.557,0.452-1.01,1.01-1.01h36.358
			c0.559,0,1.01,0.453,1.01,1.01v7.406C81.104,79.452,80.65,79.902,80.094,79.902z M44.746,77.884h34.337v-5.387H44.746V77.884z"/>
	</g>
	<g>
		<path fill="#445462" d="M85.479,72.497H49.121c-0.557,0-1.01-0.452-1.01-1.011v-7.405c0-0.558,0.453-1.011,1.01-1.011h36.334
			c0.557,0,1.009,0.451,1.011,1.008l0.023,7.406c0.001,0.269-0.104,0.522-0.294,0.716C86.005,72.391,85.748,72.497,85.479,72.497z
			 M50.132,70.479h34.335l-0.019-5.388H50.132V70.479z"/>
	</g>
	<g>
		<path fill="#445462" d="M55.854,72.497c-0.558,0-1.01-0.452-1.01-1.011v-6.731c0-0.56,0.452-1.01,1.01-1.01
			c0.562,0,1.01,0.45,1.01,1.01v6.731C56.863,72.045,56.412,72.497,55.854,72.497z"/>
	</g>
	<g>
		<path fill="#445462" d="M60.566,72.497c-0.561,0-1.01-0.452-1.01-1.011v-6.731c0-0.56,0.449-1.01,1.01-1.01
			c0.559,0,1.011,0.45,1.011,1.01v6.731C61.577,72.045,61.125,72.497,60.566,72.497z"/>
	</g>
	<g>
		<path fill="#445462" d="M59.221,39.505c-0.267,0-0.521-0.106-0.712-0.294c-0.19-0.189-0.298-0.447-0.298-0.715V4.831
			c0-0.557,0.452-1.01,1.01-1.01h7.406c0.559,0,1.012,0.453,1.012,1.01v33.64c0,0.556-0.451,1.008-1.008,1.01l-7.406,0.025
			C59.223,39.505,59.223,39.505,59.221,39.505z M66.627,38.471h0.007H66.627z M60.23,5.84v31.642l5.387-0.019V5.84H60.23z"/>
	</g>
	<g>
		<path fill="#445462" d="M66.627,12.573h-6.732c-0.558,0-1.01-0.452-1.01-1.01c0-0.557,0.452-1.01,1.01-1.01h6.732
			c0.559,0,1.012,0.453,1.012,1.01C67.639,12.121,67.186,12.573,66.627,12.573z"/>
	</g>
	<g>
		<path fill="#445462" d="M66.627,17.287h-6.732c-0.558,0-1.01-0.453-1.01-1.01c0-0.557,0.452-1.01,1.01-1.01h6.732
			c0.559,0,1.012,0.453,1.012,1.01C67.639,16.834,67.186,17.287,66.627,17.287z"/>
	</g>
	<g>
		<path fill="#445462" d="M74.943,38.56c-0.188,0-0.37-0.052-0.53-0.15c-0.229-0.142-0.392-0.368-0.452-0.629L66.277,5.004
			c-0.129-0.543,0.209-1.087,0.752-1.213L74.238,2.1c0.263-0.062,0.535-0.016,0.765,0.125c0.228,0.14,0.39,0.367,0.45,0.627
			l7.679,32.752c0.127,0.542-0.208,1.084-0.749,1.213l-7.205,1.714C75.102,38.55,75.021,38.56,74.943,38.56z M68.475,5.526
			L75.7,36.332l5.235-1.247L73.718,4.296L68.475,5.526z"/>
	</g>
	<g>
		<path fill="#445462" d="M68.796,12.339c-0.458,0-0.873-0.314-0.981-0.779c-0.129-0.543,0.209-1.086,0.752-1.214l6.559-1.537
			c0.545-0.129,1.087,0.209,1.214,0.752c0.128,0.542-0.209,1.086-0.752,1.213l-6.56,1.537C68.95,12.33,68.872,12.339,68.796,12.339z
			"/>
	</g>
	<g>
		<path fill="#445462" d="M69.871,16.927c-0.458,0-0.873-0.312-0.98-0.779c-0.129-0.543,0.209-1.087,0.752-1.214l6.559-1.537
			c0.544-0.128,1.086,0.209,1.214,0.752c0.127,0.543-0.21,1.087-0.753,1.214L70.104,16.9C70.025,16.918,69.948,16.927,69.871,16.927
			z"/>
	</g>
	<g>
		<path fill="#445462" d="M68.646,79.902c-0.561,0-1.01-0.45-1.01-1.01V72.83c0-0.561,0.449-1.012,1.01-1.012
			c0.559,0,1.011,0.451,1.011,1.012v6.062C69.657,79.452,69.205,79.902,68.646,79.902z"/>
	</g>
	<g>
		<path fill="#445462" d="M74.033,79.902c-0.559,0-1.01-0.45-1.01-1.01V72.83c0-0.561,0.451-1.012,1.01-1.012
			c0.558,0,1.011,0.451,1.011,1.012v6.062C75.044,79.452,74.591,79.902,74.033,79.902z"/>
	</g>
	<g>
		<path fill="#445462" d="M85.479,39.505H57.874c-0.558,0-1.011-0.452-1.011-1.01s0.453-1.01,1.011-1.01h27.604
			c0.559,0,1.01,0.453,1.01,1.01C86.488,39.052,86.037,39.505,85.479,39.505z"/>
	</g>
	<g>
		<path fill="#445462" d="M36.375,36.37c-6.691,0-12.487-6.234-13.779-14.824c-0.083-0.552,0.297-1.066,0.848-1.149
			c0.555-0.087,1.066,0.296,1.149,0.848c1.143,7.594,6.098,13.105,11.782,13.105s10.639-5.511,11.781-13.105
			c0.084-0.552,0.592-0.936,1.148-0.848c0.551,0.083,0.932,0.598,0.85,1.149C48.861,30.135,43.067,36.37,36.375,36.37z"/>
	</g>
	<g>
		<path fill="#445462" d="M32.962,21.326H30.27c-0.558,0-1.011-0.452-1.011-1.01c0-0.557,0.453-1.01,1.011-1.01h2.692
			c0.558,0,1.011,0.453,1.011,1.01C33.973,20.874,33.52,21.326,32.962,21.326z"/>
	</g>
	<g>
		<path fill="#445462" d="M43.062,21.326H40.37c-0.558,0-1.011-0.452-1.011-1.01c0-0.557,0.453-1.01,1.011-1.01h2.692
			c0.558,0,1.011,0.453,1.011,1.01C44.073,20.874,43.62,21.326,43.062,21.326z"/>
	</g>
	<g>
		<path fill="#445462" d="M36.375,31.273c-1.349,0-2.721-0.499-3.965-1.442c-0.445-0.336-0.532-0.97-0.195-1.415
			c0.338-0.444,0.97-0.53,1.415-0.195c1.808,1.37,3.687,1.368,5.491,0c0.443-0.336,1.078-0.25,1.415,0.195
			c0.337,0.444,0.25,1.078-0.194,1.415C39.097,30.775,37.725,31.273,36.375,31.273z"/>
	</g>
</g>
</svg>
