<?xml version="1.0" encoding="utf-8"?>
<!-- Generator: Adobe Illustrator 15.0.0, SVG Export Plug-In . SVG Version: 6.00 Build 0)  -->
<!DOCTYPE svg PUBLIC "-//W3C//DTD SVG 1.1//EN" "http://www.w3.org/Graphics/SVG/1.1/DTD/svg11.dtd">
<svg version="1.1" id="Layer_1" xmlns="http://www.w3.org/2000/svg" xmlns:xlink="http://www.w3.org/1999/xlink" x="0px" y="0px"
	 width="20px" height="20px" viewBox="0 0 20 20" enable-background="new 0 0 20 20" xml:space="preserve">
<path fill="#ED1E79" d="M9.2,13.708v3H7.742c-0.333,0-0.625,0.292-0.625,0.625c0,0.334,0.292,0.625,0.625,0.625H9.2v1.417
	C9.2,19.709,9.492,20,9.825,20s0.625-0.291,0.625-0.625v-1.417h1.458c0.334,0,0.625-0.291,0.625-0.625
	c0-0.333-0.291-0.625-0.625-0.625H10.45v-3c3.5-0.333,6.25-3.25,6.25-6.833C16.7,3.083,13.617,0,9.825,0
	C6.034,0,2.95,3.083,2.95,6.875C2.95,10.458,5.7,13.417,9.2,13.708z M9.825,1.25c3.083,0,5.625,2.542,5.625,5.625
	S12.908,12.5,9.825,12.5C6.742,12.5,4.2,9.958,4.2,6.875S6.742,1.25,9.825,1.25z"/>
</svg>
